<svg xmlns="http://www.w3.org/2000/svg" width="1740" height="124" viewBox="0 0 1740 124" role="img" aria-label="Episode 3: 掟, Rules"><defs><filter id="paper" x="0" y="0" width="100%" height="100%"><feTurbulence type="fractalNoise" baseFrequency="0.9" numOctaves="2" seed="3" result="n"/><feColorMatrix in="n" type="matrix" values="0 0 0 0 1  0 0 0 0 0.95  0 0 0 0 0.9  0 0 0 0.045 0"/></filter></defs><rect x="1" y="1" width="1738" height="122" rx="6" fill="#070505" stroke="#2a2020" stroke-width="2"/><rect x="1" y="1" width="8" height="122" fill="#d4202c"/><g><path transform="translate(34.0 29.7)" d="M1.3 14.3V4.1H7.3V5.4H2.8V8.3H6.8V9.6H2.8V12.9H7.3V14.3ZM14.5 14.3V4.1H17.8Q18.8 4.1 19.5 4.4Q20.3 4.8 20.7 5.5Q21.1 6.2 21.1 7.1Q21.1 8.1 20.7 8.8Q20.3 9.5 19.5 9.8Q18.8 10.2 17.8 10.2H16V14.3ZM16 8.9H17.8Q18.6 8.9 19.1 8.4Q19.5 7.9 19.5 7.1Q19.5 6.3 19.1 5.9Q18.6 5.4 17.8 5.4H16ZM28 14.3V12.9H30V5.4H28V4.1H33.6V5.4H31.6V12.9H33.6V14.3ZM44.1 14.4Q43.1 14.4 42.4 14.1Q41.6 13.7 41.2 13.1Q40.8 12.5 40.8 11.6H42.3Q42.3 12.3 42.8 12.7Q43.3 13.1 44.2 13.1Q45 13.1 45.4 12.7Q45.9 12.3 45.9 11.6Q45.9 11 45.6 10.6Q45.3 10.2 44.7 10L43.4 9.7Q42.3 9.3 41.7 8.6Q41 7.8 41 6.7Q41 5.9 41.4 5.2Q41.8 4.6 42.5 4.3Q43.2 3.9 44.2 3.9Q45.6 3.9 46.4 4.7Q47.2 5.4 47.3 6.7H45.7Q45.7 6 45.3 5.6Q44.9 5.2 44.1 5.2Q43.4 5.2 43 5.6Q42.6 6 42.6 6.6Q42.6 7.2 42.9 7.6Q43.2 8 43.8 8.2L45.1 8.6Q46.2 8.9 46.8 9.7Q47.4 10.5 47.4 11.6Q47.4 12.4 47 13.1Q46.6 13.7 45.9 14.1Q45.1 14.4 44.1 14.4ZM57.4 14.4Q56.4 14.4 55.8 14.1Q55.1 13.7 54.7 13Q54.3 12.4 54.3 11.4V6.9Q54.3 6 54.7 5.3Q55.1 4.6 55.8 4.3Q56.4 3.9 57.4 3.9Q58.4 3.9 59 4.3Q59.7 4.6 60.1 5.3Q60.5 6 60.5 6.9V11.4Q60.5 12.4 60.1 13Q59.7 13.7 59 14.1Q58.4 14.4 57.4 14.4ZM57.4 13.1Q58.2 13.1 58.6 12.7Q59 12.2 59 11.4V6.9Q59 6.1 58.6 5.7Q58.2 5.3 57.4 5.3Q56.6 5.3 56.2 5.7Q55.8 6.1 55.8 6.9V11.4Q55.8 12.2 56.2 12.7Q56.6 13.1 57.4 13.1ZM67.7 14.3V4.1H70.5Q71.5 4.1 72.3 4.4Q73 4.8 73.4 5.5Q73.8 6.2 73.8 7.2V11.1Q73.8 12.1 73.4 12.8Q73 13.5 72.3 13.9Q71.5 14.3 70.5 14.3ZM69.2 12.9H70.5Q71.4 12.9 71.8 12.4Q72.3 12 72.3 11.1V7.2Q72.3 6.4 71.8 5.9Q71.4 5.4 70.5 5.4H69.2ZM81.1 14.3V4.1H87.1V5.4H82.6V8.3H86.6V9.6H82.6V12.9H87.1V14.3ZM110.6 14.4Q109.6 14.4 108.9 14Q108.2 13.7 107.8 13Q107.4 12.3 107.4 11.4V7Q107.4 6 107.8 5.3Q108.2 4.7 108.9 4.3Q109.6 3.9 110.6 3.9Q111.6 3.9 112.3 4.3Q113 4.7 113.4 5.3Q113.8 6 113.8 7V11.4Q113.8 12.3 113.4 13Q113 13.7 112.3 14Q111.6 14.4 110.6 14.4ZM110.6 13.1Q111.4 13.1 111.9 12.6Q112.3 12.2 112.3 11.4V7Q112.3 6.2 111.9 5.7Q111.4 5.2 110.6 5.2Q109.8 5.2 109.3 5.7Q108.9 6.2 108.9 7V11.4Q108.9 12.2 109.3 12.6Q109.8 13.1 110.6 13.1ZM110.6 10Q110.2 10 110 9.8Q109.7 9.5 109.7 9.1Q109.7 8.7 110 8.5Q110.2 8.2 110.6 8.2Q111 8.2 111.2 8.5Q111.5 8.7 111.5 9.1Q111.5 9.5 111.2 9.8Q111 10 110.6 10ZM123.8 14.4Q122.8 14.4 122.1 14.1Q121.4 13.7 121 13Q120.6 12.4 120.6 11.5H122.1Q122.1 12.2 122.6 12.7Q123 13.1 123.8 13.1Q124.6 13.1 125 12.7Q125.5 12.2 125.5 11.5V10.7Q125.5 9.9 125 9.5Q124.6 9.1 123.8 9.1H122.7V7.7L125.1 5.4H121V4.1H126.6V5.5L123.8 8.1V7.8Q125.3 7.8 126.1 8.6Q127 9.4 127 10.7V11.5Q127 12.4 126.6 13Q126.2 13.7 125.5 14.1Q124.7 14.4 123.8 14.4Z" fill="#d4202c"/><animate attributeName="opacity" values="0;0;1" keyTimes="0;0.143;1" dur="0.70s" fill="freeze"/><animateTransform attributeName="transform" type="translate" values="0 0;0 0;0 0" keyTimes="0;0.143;1" dur="0.70s" fill="freeze"/></g><g><path transform="translate(34.0 29.8)" d="M61 74.1Q61.1 74.4 61 74.7Q61 74.9 60.9 75.1Q60.9 75.3 60.9 75.5Q60.9 75.6 60.9 75.9Q60.6 76 60 76.5Q59.3 77 58.9 77.5Q57.3 77.8 55.2 77.9Q53.1 78 51.1 77.6Q49.1 77.3 47.7 76.5Q47.4 76.3 47.1 76Q46.8 75.7 46.5 75.4Q46.1 75 45.8 74.7Q45.4 74.4 44.9 74.4Q43.2 72 41.1 70Q38.9 68.1 36.8 66.1Q34.7 64.1 33 61.5Q32 63.5 31 65.5Q30 67.6 28.9 69.6Q28.7 69.4 28.2 69.4Q28.1 69.8 28.3 69.9Q28.5 70 28.5 70Q27.8 70.6 27.3 71.2Q26.8 71.9 26.2 73.6Q26 73.7 26 73.4Q26 73.2 26 73.2Q25.3 73.5 24.5 74.4Q23.7 75.3 22.8 76Q22.2 76.5 21.4 76.6Q20.7 76.7 19.7 76.2Q19.6 77 19.2 77.6Q18.8 78.1 18.3 78.8Q16.9 78.8 15.9 78.3Q14.8 77.8 14.1 77Q13.1 75.8 12.1 74.4Q11.2 73 9.7 72.3V71.7Q8.8 71.3 8.2 70.6Q7.6 69.8 6.5 69.7Q6.5 69.7 7.2 69.5Q8 69.3 9 69.8Q9.2 69.9 9.4 70Q9.7 70.1 9.9 70.3Q10.9 70.8 12 71.2Q13.1 71.6 14.5 71.4Q14.8 68.6 14.9 65.2Q15 61.8 14.8 58.7Q14 59.3 12.8 59.8Q11.6 60.4 10.8 61.4Q10.6 61.6 10.7 62Q10.7 62.4 10.6 62.5Q10.5 62.6 10.1 62.6Q9.8 62.7 9.5 62.8Q9.3 63 9.1 63.2Q8.8 63.5 8.6 63.8Q8.2 64.3 7.6 64.8Q7.1 65.3 6 65.1Q5.9 65.1 5 64.5Q4.2 64 4 63.7Q3.8 63.1 3.2 62.7Q2.6 62.2 2 61.6Q1.3 61.1 1.2 60Q1.5 59.7 2 59.5Q2.6 59.3 2.9 58.9Q5 59.3 7.4 58Q9.8 56.7 12 55.2Q12.7 54.7 13.4 54.2Q14.1 53.8 14.8 53.4Q14.5 51.7 14.6 49.4Q14.7 47.2 15.1 44.9Q14.2 44.9 13.3 45.2Q12.4 45.5 11.5 45.9Q9.9 46.5 8.2 46.8Q6.6 47 5.2 45.6Q4.9 44.4 4.2 43.3Q3.4 42.3 3.3 40.3Q3.6 40.3 3.7 39.9Q3.7 39.6 3.9 39.6Q4.5 39.6 5.1 39.8Q5.7 40.1 6.3 40.5Q6.8 40.8 7.3 41.2Q7.9 41.5 8.5 41.5Q9.5 41.7 10.5 41.4Q11.4 41.1 12.3 40.7Q12.9 40.4 13.6 40.2Q14.2 40 14.8 39.9Q14.8 39 14.8 38.1Q14.8 37.2 14.8 36.4Q14.9 34.7 14.9 33Q14.8 31.3 14.5 29.9Q14.3 29.3 14 28.7Q13.7 28.2 13.4 27.6Q12.7 26.5 12.3 25.3Q11.9 24.2 12.4 22.8Q14.4 23 16.5 24.3Q18.7 25.5 19.8 27.8Q19.9 28.3 19.9 28.7Q19.8 29.1 19.8 29.4Q19.7 29.8 19.7 30.1Q19.8 30.5 20.1 30.8Q19.8 31.7 19.6 33Q19.3 34.3 19.4 35.6Q19.5 36.9 20 37.8Q20.3 38.3 21 38.7Q21.6 39 22.2 39.5Q22.8 39.9 22.8 41Q22.6 41.1 22.6 41.6Q22.6 41.7 22.6 41.7Q20.6 42 19.7 43.7Q18.8 45.4 18.7 47.8Q18.6 50.2 18.8 52.4Q19.6 52.6 20.2 53.2Q20.7 53.8 21.6 54Q21 54.7 20.4 55.5Q19.9 56.2 18.8 56.4Q18.6 57.9 18.8 60.4Q18.9 62.9 19.2 65.3Q19.3 66.6 19.4 67.7Q19.5 68.9 19.6 69.7Q19.6 70 19.6 70.5Q19.6 70.9 19.5 71.4Q19.5 72.5 19.5 73.6Q19.5 74.6 19.8 74.8Q20.2 75 20.9 74.5Q21.6 74 22.3 73.1Q23 72.2 23.6 71.3Q24.1 70.5 24.4 70.1Q24.5 69.8 24.6 69.4Q24.6 69 24.8 68.7Q25.3 67.7 25.9 67.2Q26.4 66.6 26.9 66Q27.3 65.3 27.5 64.3Q27.4 64.1 27.1 64.1Q26.9 64.2 26.9 64.2Q27.3 62.5 28.4 60.5Q29.5 58.6 30.1 56.7Q30.1 56.5 29.9 56.2Q29.8 55.9 29.6 55.6Q29.2 54.8 28.9 53.9Q28.5 53.1 29.3 52.7Q29.4 52.4 28.9 52.3Q28.5 52.2 28.5 52Q30.4 51.7 32.4 52.5Q34.3 53.2 35.1 54.8Q35.1 55.6 34.9 56Q34.7 56.5 34.4 57Q34.1 57.4 33.9 57.8Q33.7 58.2 33.8 58.8Q34 59.8 35 60.5Q36 61.1 37.1 61.7Q38.2 62.3 38.8 63.2Q38.8 63.1 38.8 62.9Q39 61.4 39.2 59.6Q39.4 57.7 39.1 56.1Q39 54.8 38.5 53.9Q38 53.1 37.1 52.8Q37.2 52.5 37.5 52.3Q37.8 52 38.1 51.8Q38.6 51.4 38.9 50.9Q39.3 50.5 39 49.7Q38.5 49.3 37.8 49.2Q37.1 49.1 37 47.9Q35.7 48.3 34.3 48Q33 47.7 31.7 47Q30.5 46.4 29.6 45.8Q29.8 45.4 29.7 45.2Q29.7 44.9 29.6 44.5Q29.6 44.2 29.5 43.8Q29.5 43.5 29.6 42.9Q31 42.6 32 42.4Q32.9 42.2 34.1 41.7Q34.2 42.2 34.4 42.4Q34.6 42.6 34.8 42.8Q36 42.9 37.2 42.8Q38.5 42.7 39.9 42.5Q41.2 42.4 42.3 41.9Q43.5 41.4 44.5 41.3Q45.3 41.3 46 41.6Q46.8 41.9 47.6 42.2Q48.1 42.5 48.7 42.7Q49.3 42.9 50 43Q50 43.3 50.1 43.5Q50.2 43.6 50.4 43.8Q50.7 44 50.7 44.4Q49.7 45.1 48.3 45.4Q46.8 45.7 45.3 45.8Q43.8 46 42.4 46.3Q42.7 47.1 42.7 47.8Q42.8 48.5 42.7 49.2Q42.7 49.7 42.7 50.3Q42.7 50.8 42.8 51.3Q45.8 50.9 48.7 51.3Q51.5 51.7 54 53.2Q53.4 54.5 51.8 54.6Q50.3 54.8 48.6 55Q47.9 55.1 47.3 55.5Q46.7 55.9 46.1 55.9Q45.7 56 45.2 55.9Q44.8 55.8 44.4 55.7Q43.9 55.6 43.5 55.6Q43.1 55.5 42.9 55.6Q42.5 56.4 42.5 57.3Q42.5 58.1 42.6 59Q42.6 59.6 42.6 60.2Q42.6 60.9 42.6 61.6Q42.6 61.8 42.4 62.3Q42.2 62.8 42 63.4Q41.8 63.7 41.7 64.1Q41.6 64.4 41.6 64.4Q41.8 65 43 65.7Q44.2 66.3 45.5 66.8Q46.8 67.2 47.4 67.5Q49.2 68.1 51.2 68.4Q53.2 68.7 54.8 69.4Q55.9 69.8 56.8 70.5Q57.6 71.2 58.6 71.5Q58.9 72.4 59.7 72.9Q60.5 73.3 61 74.1ZM62.5 40.8Q62.5 42.2 61.7 42.9Q61 43.5 60 44Q58.9 44.4 58 44.9Q57 45.4 56.4 46.7Q55.6 46 54.8 45.7Q54 45.5 53.8 44.5Q53.6 44.7 53.3 44.6Q53.1 44.6 52.9 44.6Q52.7 44.5 52.5 44.5Q52.4 44.5 52 44.5Q51.8 44 51.9 43.5Q51.9 43.1 52 42.5Q52 42.2 52 42Q52 41.7 52 41.4Q53.2 40.7 53.9 39.5Q54.6 38.3 54.9 36.7Q53.7 35.5 52 35Q50.4 34.6 48.4 34.5Q46.8 34.4 45.2 34.6Q43.6 34.8 42 35Q41.7 35.1 41.4 35.1Q41.2 35.1 40.8 35.2Q40.4 35.3 40.2 35.6Q40 36 39.8 36.3Q39.5 36 39.2 35.7Q38.9 35.5 38.6 35.2Q36.4 35.8 33.9 36.3Q31.4 36.7 29.7 37.8Q29.4 41.5 28.7 44.6Q28 47.6 26.5 50Q26.8 50.9 26.7 51.6Q25.5 52.3 24.3 51.6Q23 51 22.2 49.9Q21.3 48.6 21.3 47.2Q21.2 45.8 22.8 45.7Q23.4 44.4 24.3 42.4Q25.2 40.4 25.3 38.8Q24.5 38.5 24 37.6Q23.6 36.8 22.3 36.8Q22.5 36.5 23 36.5Q23.5 36.5 23.7 36.4Q23.8 36.1 23.7 35.9Q23.7 35.7 23.6 35.6Q23.5 35.2 23.7 35Q26.2 34 28.4 33.6Q30.6 33.3 33 33.2Q35.3 33.1 38.4 32.8Q38.6 32.4 38.6 31.9Q38.6 31.4 38.5 30.8Q38.5 30.5 38.5 30.1Q38.5 29.8 38.5 29.4Q37.1 28.5 36.1 27Q35 25.5 34.5 24.4Q35.5 23.7 37.1 23.9Q38.7 24.1 40.3 24.8Q41.9 25.6 42.9 26.7Q42.8 27.8 42.4 29.3Q42 30.8 41.5 32.1Q41.7 32.1 42.1 32.1Q43.6 32.2 45.4 32.3Q47.3 32.4 48.9 32.2Q50.5 32.1 51.3 31.5Q54.4 31.6 56.5 32Q58.7 32.4 60.3 33.7Q60.3 33.9 60.1 34.2Q60 34.3 60 34.5Q59.9 34.6 59.9 34.9Q60.3 35.4 60.9 36.4Q61.6 37.5 62.1 38.7Q62.6 39.9 62.5 40.8ZM29.1 60.9Q28.9 60.9 28.5 61.4Q28.2 62 27.9 62.6Q27.6 63.3 27.6 63.6Q27.8 63.6 28.2 63Q28.5 62.4 28.8 61.8Q29.1 61.1 29.1 60.9Z" fill="#ece4d6"/><animate attributeName="opacity" values="0;0;1" keyTimes="0;0.294;1" dur="0.85s" fill="freeze"/><animateTransform attributeName="transform" type="translate" values="0 6;0 6;0 0" keyTimes="0;0.294;1" dur="0.85s" fill="freeze"/></g><g><path transform="translate(126.0 59.0)" d="M21.2 37Q20.6 37 19.3 35.5Q17.9 34 16 31.1Q14.2 28.3 11.8 24.3L15.5 23.2Q18.7 28 20.9 31Q23.2 33.9 25 35.2Q26.7 36.5 28.3 36.5Q28.4 36.5 28.4 36.7Q28.4 37 28.3 37Q25.5 37 23.8 37Q22 37 21.2 37ZM12.6 11.8Q16.3 11.8 18.3 13.2Q20.2 14.5 20.2 16.9Q20.2 19.3 18.9 21.1Q17.6 22.9 15.5 23.9Q13.5 24.9 11.2 24.9Q10.6 24.9 10.1 24.9Q9.5 24.9 9 24.9V33.7Q9 34.9 9.2 35.5Q9.4 36.1 10 36.3Q10.6 36.5 11.8 36.5Q11.9 36.5 11.9 36.7Q11.9 37 11.8 37Q10.8 37 9.5 36.9Q8.2 36.9 6.7 36.9Q5.3 36.9 4 36.9Q2.7 37 1.6 37Q1.5 37 1.5 36.7Q1.5 36.5 1.6 36.5Q2.9 36.5 3.5 36.3Q4.1 36.1 4.3 35.5Q4.5 34.9 4.5 33.7V15.2Q4.5 14 4.3 13.5Q4.1 12.9 3.5 12.7Q2.9 12.4 1.7 12.4Q1.6 12.4 1.6 12.2Q1.6 12 1.7 12Q2.7 12 4 12Q5.3 12.1 6.7 12.1Q8 12.1 9.6 12Q11.2 11.8 12.6 11.8ZM15.7 18.4Q15.7 16.1 15.2 14.8Q14.7 13.6 13.9 13.1Q13 12.7 12 12.7Q10.4 12.7 9.7 13.3Q9 13.9 9 15.3V23.8Q9.6 23.8 10.2 23.9Q10.8 23.9 11.3 23.9Q13.7 23.9 14.7 22.6Q15.7 21.3 15.7 18.4ZM58.8 17.1Q58.8 15 57.8 13.7Q56.8 12.4 55 12.4Q55 12.4 55 12.2Q55 12 55 12Q56 12 57.1 12Q58.2 12.1 59.4 12.1Q60.5 12.1 61.5 12Q62.6 12 63.4 12Q63.5 12 63.5 12.2Q63.5 12.4 63.4 12.4Q61.8 12.4 61 13.7Q60.1 15 60.1 17.1V28.2Q60.1 31 58.9 33.1Q57.6 35.2 55.4 36.4Q53.2 37.5 50.2 37.5Q47.2 37.5 44.9 36.4Q42.6 35.3 41.3 33.2Q40 31.1 40 28.1V15.2Q40 14 39.8 13.5Q39.6 12.9 39 12.7Q38.4 12.4 37.2 12.4Q37.1 12.4 37.1 12.2Q37.1 12 37.2 12Q38.2 12 39.5 12Q40.8 12.1 42.2 12.1Q43.8 12.1 45 12Q46.3 12 47.3 12Q47.4 12 47.4 12.2Q47.4 12.4 47.3 12.4Q46.1 12.4 45.5 12.7Q44.9 12.9 44.7 13.5Q44.5 14.1 44.5 15.3V26.7Q44.5 31.6 46.4 33.8Q48.4 36 51.7 36Q55 36 56.9 34Q58.8 32 58.8 28.2ZM80.6 15.2V33.6Q80.6 34.5 80.7 35Q80.9 35.5 81.4 35.7Q81.9 35.8 82.8 35.8H84.2Q87.3 35.8 89.6 34.2Q91.9 32.5 92.6 29.7Q92.7 29.6 92.9 29.6Q93.1 29.6 93.1 29.8Q93 31.1 92.8 32.9Q92.7 34.8 92.7 36.4Q92.7 37 92.1 37H73.2Q73.2 37 73.2 36.7Q73.2 36.5 73.2 36.5Q74.5 36.5 75.1 36.3Q75.7 36.1 75.9 35.5Q76.1 34.9 76.1 33.7V15.2Q76.1 14 75.9 13.5Q75.7 12.9 75.1 12.7Q74.5 12.4 73.2 12.4Q73.2 12.4 73.2 12.2Q73.2 12 73.2 12Q74.2 12 75.5 12Q76.9 12.1 78.3 12.1Q79.8 12.1 81.1 12Q82.4 12 83.4 12Q83.5 12 83.5 12.2Q83.5 12.4 83.4 12.4Q82.2 12.4 81.6 12.7Q81 12.9 80.8 13.5Q80.6 14.1 80.6 15.2ZM121.2 37H103.5Q103.4 37 103.4 36.7Q103.4 36.5 103.5 36.5Q104.7 36.5 105.3 36.3Q105.9 36.1 106.1 35.5Q106.3 34.9 106.3 33.7V15.2Q106.3 14 106.1 13.5Q105.9 12.9 105.3 12.7Q104.7 12.4 103.5 12.4Q103.4 12.4 103.4 12.2Q103.4 12 103.5 12H120.4Q120.8 12 120.8 12.3L120.9 17.6Q120.9 17.7 120.7 17.8Q120.5 17.8 120.4 17.7Q119.8 15.3 118.3 14.2Q116.8 13.1 114.3 13.1H113.1Q112.3 13.1 111.8 13.3Q111.2 13.6 111 14Q110.8 14.5 110.8 15.2V33.6Q110.8 34.3 111 34.8Q111.2 35.4 111.6 35.6Q112 35.8 112.6 35.8H113.9Q117 35.8 118.9 34.6Q120.8 33.3 121.7 30.6Q121.7 30.5 121.9 30.5Q122.2 30.6 122.2 30.7Q122 31.8 121.9 33.4Q121.8 35 121.8 36.4Q121.8 37 121.2 37ZM118.9 28Q118.9 26.4 117.7 25.5Q116.4 24.5 114 24.5H108.6V23.4H114.1Q116.4 23.4 117.7 22.6Q118.9 21.8 118.9 20.4Q118.9 20.2 119.1 20.2Q119.3 20.2 119.3 20.4Q119.3 21.7 119.3 22.4Q119.3 23.2 119.3 24Q119.3 25 119.3 25.9Q119.4 26.9 119.4 28Q119.4 28.1 119.2 28.1Q118.9 28.1 118.9 28ZM138.9 16Q138.9 17.5 139.7 18.7Q140.4 19.8 141.7 20.7Q143 21.6 144.4 22.6Q145.9 23.5 147.3 24.6Q148.6 25.6 149.5 27Q150.4 28.4 150.4 30.3Q150.4 32.4 149.3 34Q148.2 35.6 146.2 36.5Q144.3 37.4 141.8 37.4Q140.6 37.4 139.3 37.2Q138 37 136.9 36.6Q135.9 36.2 135.4 35.8Q135.2 35.7 135.1 35.6Q135 35.4 135 35.1L134.9 28.7Q134.8 28.5 135.1 28.5Q135.3 28.5 135.3 28.6Q135.9 29.9 136.6 31.3Q137.4 32.6 138.3 33.8Q139.2 35 140.3 35.7Q141.4 36.4 142.8 36.4Q143.8 36.4 144.6 36.1Q145.4 35.8 146 35Q146.5 34.1 146.5 32.6Q146.5 30.8 145.7 29.4Q144.8 28.1 143.5 27.1Q142.2 26 140.8 25.1Q139.4 24.2 138.1 23.2Q136.8 22.2 136 21Q135.2 19.7 135.2 18Q135.2 15.7 136.5 14.3Q137.7 12.9 139.7 12.2Q141.6 11.5 143.6 11.5Q145 11.5 146.5 11.8Q147.9 12 148.8 12.4Q149.2 12.6 149.3 12.8Q149.4 13 149.4 13.2V19.1Q149.4 19.2 149.2 19.3Q149 19.3 148.9 19.2Q148.7 18.7 148.2 17.6Q147.8 16.5 147.1 15.3Q146.4 14.1 145.2 13.3Q144.1 12.4 142.5 12.4Q141.5 12.4 140.7 12.8Q139.9 13.2 139.4 14Q138.9 14.8 138.9 16Z" fill="#ece4d6"/><animate attributeName="opacity" values="0;0;1" keyTimes="0;0.400;1" dur="1.00s" fill="freeze"/><animateTransform attributeName="transform" type="translate" values="0 6;0 6;0 0" keyTimes="0;0.400;1" dur="1.00s" fill="freeze"/></g><line x1="126.0" y1="106" x2="278.52" y2="106" stroke="#7c1119" stroke-width="2"/><path transform="translate(1577.0 61.8)" d="M0.3 22.2Q0.2 22.2 0.2 22Q0.2 21.9 0.3 21.9Q1 21.9 1.4 21.8Q1.8 21.6 2 21.3Q2.1 20.9 2.3 20.2L4.2 9.1Q4.4 8.1 4.2 7.8Q3.9 7.5 2.9 7.5Q2.8 7.5 2.8 7.3Q2.8 7.2 2.9 7.2Q3.4 7.2 4 7.2Q4.6 7.2 5.3 7.2Q6 7.2 6.7 7.2Q7.4 7.2 7.9 7.2Q7.9 7.2 7.9 7.3Q7.9 7.5 7.9 7.5Q7.2 7.5 6.8 7.6Q6.4 7.8 6.2 8.1Q6 8.5 5.9 9.2L3.9 20.2Q3.8 21.3 4 21.6Q4.2 21.9 5.3 21.9Q5.4 21.9 5.4 22Q5.4 22.2 5.3 22.2Q4.8 22.2 4.1 22.2Q3.5 22.1 2.7 22.1Q2 22.1 1.4 22.2Q0.8 22.2 0.3 22.2ZM3.9 14.6 4 14.1H13.2L13.1 14.6ZM9.3 22.2Q9.2 22.2 9.2 22Q9.2 21.9 9.3 21.9Q10 21.9 10.4 21.8Q10.7 21.6 10.9 21.3Q11.1 20.9 11.2 20.2L13.2 9.2Q13.3 8.1 13.1 7.8Q12.9 7.5 11.8 7.5Q11.7 7.5 11.7 7.3Q11.7 7.2 11.8 7.2Q12.3 7.2 13 7.2Q13.6 7.2 14.3 7.2Q15 7.2 15.7 7.2Q16.3 7.2 16.8 7.2Q16.9 7.2 16.9 7.3Q16.9 7.5 16.8 7.5Q16.1 7.5 15.7 7.6Q15.4 7.7 15.2 8.1Q15 8.4 14.9 9.1L12.9 20.2Q12.7 21.3 13 21.6Q13.2 21.9 14.3 21.9Q14.3 21.9 14.3 22Q14.3 22.2 14.3 22.2Q13.8 22.2 13.2 22.2Q12.5 22.1 11.8 22.1Q11.1 22.1 10.4 22.2Q9.8 22.2 9.3 22.2ZM19.9 22.5Q18.7 22.5 17.9 21.8Q17.1 21.2 16.9 20Q16.6 18.9 16.9 17.5Q17.2 16.1 17.9 15Q18.7 13.9 19.7 13.2Q20.8 12.6 22 12.6Q23.3 12.6 24.1 13.3Q24.8 13.9 25.1 15.1Q25.3 16.2 25 17.5Q24.7 19.1 23.9 20.2Q23.1 21.3 22 21.9Q21 22.5 19.9 22.5ZM20.7 21.9Q21.6 21.9 22.4 21Q23.1 20.2 23.4 18.6Q23.5 17.7 23.5 16.7Q23.5 15.7 23.2 14.9Q22.9 14.1 22.5 13.7Q22 13.2 21.3 13.2Q20.4 13.2 19.6 14Q18.9 14.9 18.6 16.5Q18.4 17.5 18.4 18.4Q18.5 19.4 18.7 20.2Q19 21 19.5 21.4Q20 21.9 20.7 21.9ZM30.2 22.5Q29.4 22.5 28.9 22Q28.4 21.5 28.2 20.8Q28 20 28.1 19.1Q28.3 18 28.8 17Q29.3 15.9 29.7 14.9Q29.9 14.6 29.9 14.5Q29.8 14.3 29.5 14.3H28.3Q27.7 14.3 27.4 14.4Q27.1 14.5 26.9 14.8Q26.7 15 26.5 15.5Q26.5 15.6 26.4 15.6Q26.2 15.5 26.3 15.4Q26.6 14.4 26.9 13.8Q27.2 13.3 27.6 13.1Q28 12.9 28.7 12.9H30.9Q31.1 12.9 31.1 12.9Q31.2 13 31.1 13.2Q30.5 14.4 30.1 15.8Q29.6 17.1 29.5 18.2Q29.3 19.5 29.7 20.4Q30.2 21.2 31.1 21.2Q31.7 21.2 32.3 20.7Q32.9 20.3 33.4 19.6Q33.9 18.9 34.3 18Q34.7 17.1 34.8 16.1Q35 15.3 34.8 14.9Q34.6 14.5 34.2 14.5Q33.9 14.5 33.7 14.9Q33.4 15.3 33.4 15.9Q33.2 16.9 33.3 17.8Q33.4 18.7 33.7 19.5Q34.1 20.2 34.6 20.7Q35.2 21.2 35.9 21.2Q36.5 21.2 37.1 20.7Q37.7 20.2 38.2 19.4Q38.7 18.6 38.9 17.5Q39 16.6 38.9 16.1Q38.8 15.5 38.6 15.2Q38.4 14.8 38.2 14.5Q38 14.3 37.8 14.1Q37.7 13.9 37.7 13.6Q37.7 13.1 38 12.9Q38.4 12.7 38.8 12.7Q39.3 12.7 39.5 13.1Q39.8 13.6 39.9 14.4Q39.9 15.1 39.8 16.1Q39.6 17.5 39.1 18.7Q38.6 19.9 38 20.7Q37.3 21.6 36.5 22Q35.8 22.5 35.1 22.5Q34.4 22.5 33.9 22Q33.3 21.5 33 20.6Q32.7 19.8 32.7 18.7Q32.6 17.6 32.8 16.4Q33 15.3 33.3 14.5Q33.6 13.7 34 13.2Q34.4 12.8 34.8 12.8Q35.4 12.8 35.6 13.5Q35.8 14.2 35.6 15.3Q35.3 16.9 34.8 18.2Q34.2 19.5 33.4 20.5Q32.7 21.5 31.8 22Q31 22.5 30.2 22.5ZM49.2 22.5Q48.7 22.5 48.3 22.3Q47.8 22.1 47.6 21.6Q47.4 21.1 47.6 20.3L48.6 14.8Q48.7 14 48.6 13.8Q48.4 13.5 47.7 13.5Q47.6 13.5 47.7 13.4Q47.7 13.2 47.8 13.2Q48.7 13.2 49.3 12.6Q50 12.1 50.2 11.3Q50.3 11.2 50.5 11.2Q50.7 11.2 50.7 11.3L49.2 19.6Q49 20.6 49.3 21Q49.6 21.4 50.3 21.4Q50.9 21.4 51.5 21.1Q52 20.9 52.5 20.4Q52.6 20.4 52.7 20.5Q52.8 20.6 52.7 20.6Q51.6 21.6 50.8 22Q50 22.5 49.2 22.5ZM52.7 14Q52.7 14 52.2 13.9Q51.8 13.9 51.1 13.8Q50.5 13.7 49.9 13.7L49.9 13.1Q50.6 13.1 51.3 13.1Q52 13 52.6 13Q53.1 13 53.3 13Q53.5 13 53.5 13Q53.5 13.1 53.5 13.2Q53.5 13.4 53.2 13.7Q53 14 52.7 14ZM57.1 22.5Q55.9 22.5 55.2 21.8Q54.4 21.2 54.2 20Q53.9 18.9 54.2 17.5Q54.4 16.1 55.2 15Q55.9 13.9 57 13.2Q58.1 12.6 59.3 12.6Q60.6 12.6 61.3 13.3Q62.1 13.9 62.3 15.1Q62.6 16.2 62.3 17.5Q62 19.1 61.2 20.2Q60.4 21.3 59.3 21.9Q58.2 22.5 57.1 22.5ZM58 21.9Q58.9 21.9 59.6 21Q60.4 20.2 60.6 18.6Q60.8 17.7 60.8 16.7Q60.7 15.7 60.5 14.9Q60.2 14.1 59.7 13.7Q59.3 13.2 58.5 13.2Q57.6 13.2 56.9 14Q56.1 14.9 55.8 16.5Q55.6 17.5 55.7 18.4Q55.7 19.4 56 20.2Q56.3 21 56.8 21.4Q57.3 21.9 58 21.9ZM71.8 22.5Q70.7 22.5 70.4 21.7Q70 21 70.3 19.3L71.2 15Q71.3 14.3 71.2 14Q71.1 13.7 70.8 13.7Q70.6 13.7 70.2 14Q69.8 14.3 69.3 14.8Q69.2 14.9 69.1 14.8Q69.1 14.7 69.1 14.6Q69.9 13.7 70.6 13.2Q71.2 12.7 71.8 12.7Q72.5 12.7 72.7 13.2Q72.9 13.8 72.6 15L71.9 18.9Q71.6 20.2 71.8 20.8Q72 21.4 72.7 21.4Q73.4 21.4 74.2 20.5Q75.1 19.5 75.8 17.6Q76.5 15.8 77 13.1L77.3 13.1Q76.8 16 76 18.1Q75.1 20.2 74.1 21.3Q73 22.5 71.8 22.5ZM76.5 22.4Q75.9 22.4 75.7 21.9Q75.5 21.3 75.7 20.2L77 13.1Q77.1 12.7 77.9 12.7Q78.3 12.7 78.4 12.8Q78.6 12.8 78.6 12.9Q78.6 13 78.4 13.5Q78.3 14.1 78.2 14.7L77.2 20Q77 21.4 77.6 21.4Q77.9 21.4 78.3 21.1Q78.7 20.8 79.2 20.3Q79.2 20.2 79.3 20.3Q79.4 20.4 79.4 20.5Q78.5 21.5 77.9 21.9Q77.2 22.4 76.5 22.4ZM82.3 22.4Q81.4 22.4 80.7 22Q80 21.5 80.1 20.9Q80.1 20.5 80.4 20.3Q80.6 20.1 80.9 20.1Q81.3 20.1 81.5 20.4Q81.7 20.6 81.9 21Q82 21.3 82.3 21.6Q82.6 21.8 83.2 21.8Q83.8 21.8 84.1 21.5Q84.4 21.2 84.5 20.5Q84.6 19.8 84.3 19.2Q84 18.7 83.4 18.2Q82.9 17.8 82.4 17.4Q81.8 16.9 81.5 16.4Q81.2 15.8 81.4 15Q81.5 14.3 82 13.8Q82.5 13.3 83.2 13Q83.9 12.7 84.7 12.7Q85.6 12.7 86.2 13Q86.8 13.4 86.8 13.9Q86.7 14.3 86.4 14.5Q86.2 14.7 85.9 14.7Q85.5 14.7 85.3 14.5Q85.1 14.3 84.9 14Q84.8 13.7 84.5 13.5Q84.3 13.3 83.8 13.3Q83.3 13.3 83 13.5Q82.7 13.7 82.6 14.1Q82.5 14.8 82.9 15.4Q83.2 15.9 83.7 16.3Q84.3 16.8 84.8 17.3Q85.3 17.7 85.7 18.3Q86 18.9 85.8 19.7Q85.7 20.3 85.2 21Q84.8 21.6 84 22Q83.3 22.4 82.3 22.4ZM91 22.5Q89.7 22.5 88.9 21.8Q88.2 21.1 87.9 20Q87.7 19 87.9 17.7Q88.1 16.8 88.6 15.9Q89.1 15 89.9 14.2Q90.6 13.5 91.5 13.1Q92.5 12.6 93.5 12.6Q94.4 12.6 94.9 12.9Q95.3 13.3 95.2 13.9Q95.1 14.5 94.6 15Q94 15.6 93.1 16Q92.2 16.4 91.1 16.7Q90 17.1 88.9 17.2L88.9 16.9Q90.7 16.6 92 16Q93.2 15.4 93.4 14.4Q93.5 13.8 93.2 13.5Q92.9 13.2 92.4 13.2Q91.7 13.2 91.1 13.7Q90.6 14.2 90.2 15.1Q89.8 15.9 89.7 16.9Q89.4 18.2 89.6 19.3Q89.8 20.3 90.4 20.9Q91 21.6 92 21.6Q92.6 21.6 93.2 21.4Q93.8 21.2 94.4 20.8Q94.4 20.7 94.5 20.8Q94.6 20.9 94.5 21Q93.6 21.8 92.7 22.1Q91.8 22.5 91 22.5ZM103.8 22.4Q103.1 22.4 102.9 21.9Q102.7 21.3 102.9 20L103.9 15Q104.2 13.7 103.5 13.7Q103.3 13.7 102.9 14Q102.5 14.2 102 14.8Q101.9 14.9 101.8 14.8Q101.7 14.6 101.8 14.6Q102.6 13.6 103.3 13.1Q104 12.7 104.6 12.7Q105.3 12.7 105.5 13.2Q105.6 13.7 105.4 14.9L104.4 20Q104.3 20.8 104.4 21.1Q104.5 21.4 104.8 21.4Q105.1 21.4 105.4 21.1Q105.8 20.8 106.3 20.4Q106.4 20.3 106.5 20.4Q106.6 20.5 106.5 20.5Q105.7 21.4 105.1 21.9Q104.4 22.4 103.8 22.4ZM105.3 10Q104.8 10 104.5 9.7Q104.2 9.4 104.2 8.8Q104.2 8.3 104.5 8Q104.8 7.7 105.3 7.7Q105.8 7.7 106.1 8Q106.4 8.3 106.4 8.8Q106.4 10 105.3 10ZM110 22.5Q109.5 22.5 109.1 22.3Q108.6 22.1 108.4 21.6Q108.2 21.1 108.4 20.3L109.4 14.8Q109.5 14 109.4 13.8Q109.3 13.5 108.6 13.5Q108.5 13.5 108.5 13.4Q108.5 13.2 108.6 13.2Q109.5 13.2 110.2 12.6Q110.8 12.1 111.1 11.3Q111.1 11.2 111.3 11.2Q111.5 11.2 111.5 11.3L110 19.6Q109.8 20.6 110.1 21Q110.4 21.4 111.1 21.4Q111.8 21.4 112.3 21.1Q112.8 20.9 113.3 20.4Q113.4 20.4 113.5 20.5Q113.6 20.6 113.5 20.6Q112.4 21.6 111.6 22Q110.8 22.5 110 22.5ZM113.5 14Q113.5 14 113 13.9Q112.6 13.9 111.9 13.8Q111.3 13.7 110.7 13.7L110.7 13.1Q111.4 13.1 112.1 13.1Q112.8 13 113.4 13Q114 13 114.2 13Q114.3 13 114.3 13Q114.4 13.1 114.3 13.2Q114.3 13.4 114 13.7Q113.8 14 113.5 14ZM115.9 22.4Q115.4 22.4 115.1 22.1Q114.8 21.8 114.8 21.3Q114.8 20.8 115.1 20.5Q115.4 20.2 115.9 20.2Q116.4 20.2 116.7 20.5Q117 20.8 117 21.3Q117 22.4 115.9 22.4Z" fill="#8a7f76"/></svg>