<svg xmlns="http://www.w3.org/2000/svg" width="860" height="350" viewBox="0 0 860 350" role="img" aria-label="greencart:  (JavaScript, 0 stars)"><defs><filter id="paper" x="0" y="0" width="100%" height="100%"><feTurbulence type="fractalNoise" baseFrequency="0.9" numOctaves="2" seed="3" result="n"/><feColorMatrix in="n" type="matrix" values="0 0 0 0 1  0 0 0 0 0.95  0 0 0 0 0.9  0 0 0 0.045 0"/></filter></defs><rect x="1" y="1" width="858" height="348" rx="6" fill="#0e0b0b" stroke="#2a2020" stroke-width="2"/><rect x="1" y="1" width="858" height="348" rx="6" filter="url(#paper)"/><rect x="44" y="30" width="7" height="7" fill="#d4202c"/><path transform="translate(62.0 24.7)" d="M1.1 13.3V3.8H4.1Q5 3.8 5.6 4.1Q6.3 4.5 6.7 5.1Q7 5.7 7 6.5Q7 7.5 6.5 8.2Q6.1 8.9 5.2 9.2L7.2 13.3H5.6L3.8 9.4H2.5V13.3ZM2.5 8.1H4.1Q4.8 8.1 5.2 7.7Q5.6 7.3 5.6 6.6Q5.6 5.9 5.2 5.4Q4.8 5 4.1 5H2.5ZM11.9 13.3V3.8H17.5V5H13.3V7.7H17V8.9H13.3V12H17.5V13.3ZM25.3 13.4Q24.4 13.4 23.7 13.1Q23.1 12.7 22.7 12.1Q22.4 11.5 22.4 10.6V6.4Q22.4 5.5 22.7 4.9Q23.1 4.3 23.7 4Q24.4 3.6 25.3 3.6Q26.2 3.6 26.8 4Q27.5 4.3 27.8 4.9Q28.2 5.6 28.2 6.4H26.8Q26.8 5.7 26.4 5.3Q26 4.9 25.3 4.9Q24.6 4.9 24.2 5.3Q23.8 5.7 23.8 6.4V10.6Q23.8 11.4 24.2 11.7Q24.6 12.1 25.3 12.1Q26 12.1 26.4 11.7Q26.8 11.4 26.8 10.6H28.2Q28.2 11.5 27.8 12.1Q27.5 12.7 26.8 13.1Q26.2 13.4 25.3 13.4ZM33.2 13.3V3.8H38.8V5H34.6V7.7H38.3V8.9H34.6V12H38.8V13.3ZM43.7 13.3V3.8H45.5L48.2 11.7Q48.2 11.3 48.2 10.8Q48.1 10.2 48.1 9.7Q48.1 9.1 48.1 8.7V3.8H49.4V13.3H47.6L44.9 5.4Q44.9 5.7 44.9 6.2Q45 6.7 45 7.3Q45 7.8 45 8.3V13.3ZM56.5 13.3V5.1H54V3.8H60.4V5.1H57.9V13.3ZM75.7 13.3V3.8H78.8Q79.7 3.8 80.4 4.1Q81.1 4.5 81.5 5.1Q81.8 5.8 81.8 6.6Q81.8 7.5 81.5 8.1Q81.1 8.8 80.4 9.1Q79.7 9.5 78.8 9.5H77.1V13.3ZM77.1 8.2H78.8Q79.5 8.2 80 7.8Q80.4 7.4 80.4 6.6Q80.4 5.9 80 5.5Q79.5 5 78.8 5H77.1ZM85.8 13.3 88.3 3.8H90.1L92.5 13.3H91.1L90.5 10.9H87.8L87.3 13.3ZM88.1 9.7H90.3L89.6 7Q89.4 6.2 89.3 5.7Q89.2 5.2 89.2 5Q89.1 5.2 89 5.7Q88.9 6.2 88.8 6.9ZM99.9 13.4Q99 13.4 98.4 13.1Q97.7 12.7 97.3 12.1Q97 11.5 97 10.6V6.4Q97 5.5 97.3 4.9Q97.7 4.3 98.4 4Q99 3.6 99.9 3.6Q100.8 3.6 101.4 4Q102.1 4.3 102.4 4.9Q102.8 5.6 102.8 6.4H101.4Q101.4 5.7 101 5.3Q100.6 4.9 99.9 4.9Q99.2 4.9 98.8 5.3Q98.4 5.7 98.4 6.4V10.6Q98.4 11.4 98.8 11.8Q99.2 12.2 99.9 12.2Q100.6 12.2 101 11.8Q101.4 11.4 101.4 10.6V9.6H99.6V8.3H102.8V10.6Q102.8 11.5 102.4 12.1Q102.1 12.7 101.4 13.1Q100.8 13.4 99.9 13.4ZM107.8 13.3V3.8H113.4V5H109.2V7.7H112.9V8.9H109.2V12H113.4V13.3ZM131.8 13.4Q130.9 13.4 130.3 13Q129.6 12.7 129.2 12.1Q128.9 11.4 128.9 10.6V6.5Q128.9 5.6 129.2 5Q129.6 4.3 130.3 4Q130.9 3.6 131.8 3.6Q132.7 3.6 133.4 4Q134 4.3 134.4 5Q134.8 5.6 134.8 6.5V10.6Q134.8 11.4 134.4 12.1Q134 12.7 133.4 13Q132.7 13.4 131.8 13.4ZM131.8 12.2Q132.5 12.2 133 11.7Q133.4 11.3 133.4 10.6V6.5Q133.4 5.7 133 5.3Q132.5 4.8 131.8 4.8Q131.1 4.8 130.7 5.3Q130.2 5.7 130.2 6.5V10.6Q130.2 11.3 130.7 11.7Q131.1 12.2 131.8 12.2ZM131.8 9.3Q131.5 9.3 131.2 9.1Q131 8.9 131 8.5Q131 8.1 131.2 7.9Q131.5 7.7 131.8 7.7Q132.2 7.7 132.4 7.9Q132.6 8.1 132.6 8.5Q132.6 8.9 132.4 9.1Q132.2 9.3 131.8 9.3ZM139.7 13.3V11.9L142.6 8.8Q143.3 8.1 143.6 7.6Q143.9 7 143.9 6.4Q143.9 5.7 143.5 5.3Q143.1 4.9 142.5 4.9Q141.7 4.9 141.3 5.3Q140.8 5.8 140.8 6.5H139.4Q139.4 5.6 139.8 5Q140.2 4.3 140.9 4Q141.6 3.6 142.5 3.6Q143.3 3.6 144 4Q144.6 4.3 145 4.9Q145.3 5.5 145.3 6.4Q145.3 7.2 144.9 8Q144.5 8.8 143.5 9.8L141.3 12H145.5V13.3Z" fill="#8a7f76"/><path transform="translate(627.0 24.7)" d="M3.9 13.4Q2.5 13.4 1.8 12.6Q1.1 11.9 1.1 10.6V3.8H2.5V10.6Q2.5 11.3 2.8 11.7Q3.2 12.2 3.9 12.2Q4.6 12.2 5 11.7Q5.3 11.3 5.3 10.6V3.8H6.7V10.6Q6.7 11.9 6 12.6Q5.3 13.4 3.9 13.4ZM11.8 13.3V3.8H14.9Q15.8 3.8 16.5 4.1Q17.1 4.5 17.5 5.1Q17.9 5.8 17.9 6.6Q17.9 7.5 17.5 8.1Q17.1 8.8 16.5 9.1Q15.8 9.5 14.9 9.5H13.2V13.3ZM13.2 8.2H14.9Q15.6 8.2 16 7.8Q16.5 7.4 16.5 6.6Q16.5 5.9 16 5.5Q15.6 5 14.9 5H13.2ZM22.4 13.3V3.8H25Q26 3.8 26.7 4.1Q27.4 4.5 27.7 5.1Q28.1 5.8 28.1 6.7V10.3Q28.1 11.2 27.7 11.9Q27.4 12.5 26.7 12.9Q26 13.3 25 13.3ZM23.8 12H25Q25.8 12 26.3 11.5Q26.7 11.1 26.7 10.3V6.7Q26.7 5.9 26.3 5.5Q25.8 5 25 5H23.8ZM32.5 13.3 35 3.8H36.8L39.2 13.3H37.8L37.2 10.9H34.5L34 13.3ZM34.8 9.7H37L36.3 7Q36.1 6.2 36 5.7Q35.9 5.2 35.9 5Q35.8 5.2 35.7 5.7Q35.6 6.2 35.5 6.9ZM45.8 13.3V5.1H43.3V3.8H49.8V5.1H47.2V13.3ZM54.5 13.3V3.8H60.1V5H55.9V7.7H59.6V8.9H55.9V12H60.1V13.3ZM65 13.3V3.8H67.7Q68.6 3.8 69.3 4.1Q70 4.5 70.4 5.1Q70.8 5.8 70.8 6.7V10.3Q70.8 11.2 70.4 11.9Q70 12.5 69.3 12.9Q68.6 13.3 67.7 13.3ZM66.4 12H67.7Q68.5 12 68.9 11.5Q69.4 11.1 69.4 10.3V6.7Q69.4 5.9 68.9 5.5Q68.5 5 67.7 5H66.4ZM89.1 13.4Q88.2 13.4 87.5 13Q86.8 12.7 86.5 12.1Q86.1 11.5 86.1 10.7H87.5Q87.5 11.4 87.9 11.8Q88.3 12.2 89.1 12.2Q89.8 12.2 90.2 11.8Q90.6 11.3 90.6 10.7V10Q90.6 9.2 90.2 8.8Q89.8 8.4 89.1 8.4H88.1V7.1L90.3 5H86.5V3.8H91.7V5.1L89.1 7.5V7.2Q90.4 7.2 91.2 8Q92 8.7 92 9.9V10.7Q92 11.5 91.7 12.1Q91.3 12.7 90.6 13Q90 13.4 89.1 13.4ZM107.7 13.3V3.8H110.3Q111.3 3.8 112 4.1Q112.6 4.5 113 5.1Q113.4 5.8 113.4 6.7V10.3Q113.4 11.2 113 11.9Q112.6 12.5 112 12.9Q111.3 13.3 110.3 13.3ZM109.1 12H110.3Q111.1 12 111.6 11.5Q112 11.1 112 10.3V6.7Q112 5.9 111.6 5.5Q111.1 5 110.3 5H109.1ZM117.8 13.3 120.2 3.8H122.1L124.5 13.3H123.1L122.5 10.9H119.8L119.2 13.3ZM120.1 9.7H122.2L121.6 7Q121.4 6.2 121.3 5.7Q121.2 5.2 121.2 5Q121.1 5.2 121 5.7Q120.9 6.2 120.7 6.9ZM131.1 13.3V9.8L128.3 3.8H129.8L131.4 7.4Q131.6 7.7 131.7 8Q131.8 8.3 131.8 8.5Q131.9 8.3 132 8Q132.1 7.7 132.2 7.4L133.9 3.8H135.3L132.5 9.8V13.3ZM142.5 13.4Q141.6 13.4 140.9 13.1Q140.2 12.8 139.8 12.2Q139.4 11.6 139.4 10.8H140.8Q140.8 11.4 141.3 11.8Q141.7 12.1 142.5 12.1Q143.3 12.1 143.7 11.8Q144.1 11.4 144.1 10.8Q144.1 10.2 143.8 9.9Q143.6 9.5 143 9.3L141.8 9Q140.8 8.7 140.2 8Q139.6 7.2 139.6 6.2Q139.6 5.4 140 4.9Q140.4 4.3 141 4Q141.6 3.6 142.5 3.6Q143.8 3.6 144.6 4.3Q145.4 5 145.4 6.2H144Q144 5.6 143.6 5.2Q143.2 4.9 142.5 4.9Q141.8 4.9 141.4 5.2Q141 5.5 141 6.1Q141 6.7 141.3 7.1Q141.6 7.4 142.2 7.6L143.4 8Q144.4 8.3 145 9Q145.5 9.7 145.5 10.7Q145.5 11.5 145.2 12.1Q144.8 12.7 144.1 13.1Q143.4 13.4 142.5 13.4ZM160.5 13.3 162.9 3.8H164.7L167.1 13.3H165.7L165.1 10.9H162.5L161.9 13.3ZM162.7 9.7H164.9L164.2 7Q164.1 6.2 163.9 5.7Q163.8 5.2 163.8 5Q163.8 5.2 163.7 5.7Q163.6 6.2 163.4 6.9ZM174.5 13.4Q173.6 13.4 173 13.1Q172.3 12.7 172 12.1Q171.6 11.5 171.6 10.6V6.4Q171.6 5.5 172 4.9Q172.3 4.3 173 4Q173.6 3.6 174.5 3.6Q175.4 3.6 176.1 4Q176.7 4.3 177.1 4.9Q177.4 5.6 177.4 6.4H176Q176 5.7 175.6 5.3Q175.2 4.9 174.5 4.9Q173.8 4.9 173.4 5.3Q173 5.7 173 6.4V10.6Q173 11.4 173.4 11.8Q173.8 12.2 174.5 12.2Q175.2 12.2 175.6 11.8Q176 11.4 176 10.6V9.6H174.2V8.3H177.4V10.6Q177.4 11.5 177.1 12.1Q176.7 12.7 176.1 13.1Q175.4 13.4 174.5 13.4ZM185.1 13.4Q184.2 13.4 183.6 13.1Q182.9 12.7 182.6 12.1Q182.3 11.5 182.3 10.6V6.4Q182.3 5.6 182.6 4.9Q182.9 4.3 183.6 4Q184.2 3.6 185.1 3.6Q186 3.6 186.7 4Q187.3 4.3 187.6 4.9Q188 5.6 188 6.4V10.6Q188 11.5 187.6 12.1Q187.3 12.7 186.7 13.1Q186 13.4 185.1 13.4ZM185.1 12.1Q185.8 12.1 186.2 11.7Q186.6 11.4 186.6 10.6V6.4Q186.6 5.7 186.2 5.3Q185.8 4.9 185.1 4.9Q184.4 4.9 184 5.3Q183.7 5.7 183.7 6.4V10.6Q183.7 11.4 184 11.7Q184.4 12.1 185.1 12.1Z" fill="#8a7f76"/><line x1="44" y1="58" x2="816" y2="58" stroke="#221a1a" stroke-width="1.5"/><path transform="translate(44.0 78.8)" d="M14.7 80.9Q12.7 81.7 10.6 80.7Q8.5 79.6 6.9 77.5Q6.6 77.1 6.2 76.1Q5.7 75.1 5.3 74Q4.8 72.9 4.7 72.1Q4.5 71.3 4.7 71.1Q5 70.6 5.7 70.6Q6.5 70.5 7.2 70.8Q7.9 71.1 8.1 71.5Q8.3 72 8.6 72.6Q8.9 73.2 9.4 73.8Q9.8 74.3 10.1 74.5Q11.1 75.5 11.9 75.7Q12.7 75.9 13.1 75.5Q14.3 74.6 15 73.3Q15.7 71.9 16.7 68.9Q17.4 66.3 18.1 63.9Q18.8 61.5 19.4 59.9Q19.6 59.1 19.9 58.5Q20.3 57.9 20.5 57.6H21Q19.4 58.6 18.3 59.7Q17.2 60.8 15.4 61.6Q14.9 62.1 13.3 62.2Q11.7 62.3 10.1 61.8Q9.1 61.2 8.6 60.8Q8.1 60.4 7.8 59.7Q7.4 59.1 7 58Q6.5 57 6.9 54.6Q7.2 52.2 8.1 49.8Q9 48.1 10.6 46.1Q12.2 44 14 42.4Q15.8 40.7 17.3 40.3Q17.9 40 18.9 39.8Q20 39.5 21.2 39.9Q22.4 40 23.1 40.4Q23.7 40.8 25.1 42Q26 42.9 27 44.1Q28 45.3 28.3 46.2Q28.8 47.3 28.6 48.4Q28.4 49.4 27.7 50.3Q27.1 51.2 26.4 52.1Q25.7 53.1 25.3 54.7Q25 56.8 24.1 59.4Q23.2 62 22.7 64.3L21.5 68.6Q19.8 74.5 17.9 77.3Q16.1 80.1 14.7 80.9ZM12.7 57.6Q14.1 57.5 15.3 57.2Q16.4 56.8 17.4 55.8Q18.5 54.8 19.7 53Q20.8 51.3 21.3 49.7Q21.8 48.1 21.7 46.3Q21.6 45.2 21.2 44.9Q20.8 44.5 19.8 44.7Q18.5 44.9 17.2 45.9Q15.9 46.9 14.5 48.8Q13.4 50.2 12.7 52.1Q12 54.2 12 55.8Q12 57.3 12.7 57.6ZM33.5 65Q32.9 64.6 32.4 63.9Q31.9 63.3 32.1 61.9Q32.3 59.9 32.7 58.4Q33 56.9 33.5 55Q33.6 54.1 34.3 52.1Q34.9 50 35.8 47.7Q36.7 45.3 37.6 43.2Q38.6 41 39.3 40Q40 39.4 41.1 39.4Q42.3 39.5 42.9 40Q43.6 40.7 43.3 42.2Q42.9 43.8 41.2 47.1Q40.6 48.5 40.2 49.4Q39.7 50.3 39.6 50.7Q39.5 51.1 40 50.9Q40.4 50.2 41.5 49.2Q42.6 48.1 43.9 47.2Q45.2 46.2 46.3 45.4Q47.4 44.6 47.8 44.4Q48.4 44.1 49.1 43.8Q49.8 43.6 50.1 43.5Q51.7 42.7 53.5 42.9Q55.4 43.1 55.8 44.1Q55.8 44.7 56.2 45Q56.6 45.2 56.6 45.2Q56.9 45.2 56.9 45.4Q57 45.7 57 45.7Q57 46.1 56.1 46.7Q55.3 47.2 54.1 47.3Q53.2 47.4 52.5 47.6Q51.8 47.9 50.9 48.3Q48.2 49.9 45.9 51.2Q43.7 52.5 41.4 55Q40.9 55.5 40.4 56.1Q39.9 56.8 39.3 57.7Q39 58 38.6 59.2Q38.3 60.4 38 61.5Q37.8 62.6 37.8 62.8Q37.8 62.8 37.6 63.5Q37.4 64.1 36.9 64.8Q36 65.9 35.3 66Q34.7 66.2 33.5 65ZM70.4 65.3Q68.5 66.5 66.4 66.7Q64.3 66.9 62.3 66.1Q60.4 65.3 59.2 63.7Q58.2 62.5 57.7 60.5Q57.2 58.5 57.6 55.1Q57.9 52.1 59.5 49.1Q61 46.1 63.3 43.7Q65.5 41.3 68 40.5Q69 40 69.9 39.9Q70.8 39.8 72.4 39.9Q74 40.1 75.1 40.7Q76.1 41.2 76.6 41.9Q77.7 43 78.1 44Q78.4 45 78.4 46Q78.1 47.9 76.4 50.3Q74.7 52.7 71.7 54.1Q70.4 54.6 68.7 54.6Q67 54.6 64.9 54Q63.4 53.5 62.9 54.2Q62.5 54.9 62.3 57.3Q62.3 59.2 62.9 60.3Q63.4 61.4 64.6 61.7Q66.2 62 66.9 61.9Q67.7 61.8 68.8 61.2Q69.6 60.7 70 60.4Q70.4 60.1 70.8 59.8Q71.1 59.5 71.7 59.1Q72.1 58.7 72.4 58.6Q72.7 58.4 73.1 58.4Q73.6 58.5 74.1 59Q74.6 59.6 74.9 60Q75.2 60.3 74.7 61.2Q74.1 62.2 73 63.3Q71.8 64.4 70.4 65.3ZM69.8 50.1Q70.5 49.8 71.4 49.1Q72.2 48.3 72.9 47.5Q73.6 46.7 73.6 46.1Q73.6 45.3 72.7 44.7Q71.7 44 70 44.5Q69.3 44.6 68.5 45.3Q67.6 46.1 66.8 46.9Q66 47.8 65.4 48.6Q64.9 49.3 64.8 49.6Q65.1 50 66 50.2Q66.9 50.4 68 50.3Q69.1 50.3 69.8 50.1ZM93.5 65.3Q91.6 66.5 89.5 66.7Q87.4 66.9 85.4 66.1Q83.5 65.3 82.3 63.7Q81.3 62.5 80.8 60.5Q80.3 58.5 80.7 55.1Q81 52.1 82.6 49.1Q84.1 46.1 86.4 43.7Q88.6 41.3 91.1 40.5Q92.1 40 93 39.9Q93.9 39.8 95.5 39.9Q97.1 40.1 98.2 40.7Q99.2 41.2 99.7 41.9Q100.8 43 101.2 44Q101.5 45 101.5 46Q101.2 47.9 99.5 50.3Q97.8 52.7 94.8 54.1Q93.5 54.6 91.8 54.6Q90.1 54.6 88 54Q86.5 53.5 86 54.2Q85.6 54.9 85.4 57.3Q85.4 59.2 86 60.3Q86.5 61.4 87.7 61.7Q89.3 62 90 61.9Q90.8 61.8 91.9 61.2Q92.7 60.7 93.1 60.4Q93.5 60.1 93.9 59.8Q94.2 59.5 94.8 59.1Q95.2 58.7 95.5 58.6Q95.8 58.4 96.2 58.4Q96.7 58.5 97.2 59Q97.7 59.6 98 60Q98.3 60.3 97.8 61.2Q97.2 62.2 96.1 63.3Q94.9 64.4 93.5 65.3ZM92.9 50.1Q93.6 49.8 94.5 49.1Q95.3 48.3 96 47.5Q96.7 46.7 96.7 46.1Q96.7 45.3 95.8 44.7Q94.8 44 93.1 44.5Q92.4 44.6 91.6 45.3Q90.7 46.1 89.9 46.9Q89.1 47.8 88.5 48.6Q88 49.3 87.9 49.6Q88.2 50 89.1 50.2Q90 50.4 91.1 50.3Q92.2 50.3 92.9 50.1ZM128 64.8Q126.5 64.7 125.5 64.2Q124.6 63.6 123.9 62.1Q123.7 61 123.6 59.8Q123.5 58.6 123.6 57.5Q123.7 56.3 123.8 55.7Q123.9 55.5 123.9 55Q123.9 54.4 123.9 53.8Q123.8 52.6 123.3 52.4Q122.8 52.2 121.8 52.7Q120.4 53.4 118.6 54.6Q116.7 55.8 114.7 57.4Q112.7 58.9 110.7 60.6Q109.2 62.2 108.6 63.2Q108.1 64.2 107.4 64.2Q106.8 64.5 106.3 64.1Q105.8 63.8 105.1 63.2Q104.6 62.7 104 61.9Q103.5 61.2 103.3 61Q103.3 60.2 103.5 59.2Q103.7 58.2 104.1 57.1Q104.4 56.1 104.8 55.3Q105.1 55 105.3 54.4Q105.6 53.8 106 53.1Q106.2 52.1 106.8 50.8Q107.4 49.5 107.8 48.3Q108.7 46.6 109.1 45.3Q109.5 44.1 109.7 42.5Q109.7 42.3 109.8 42Q110 41.8 110.3 41.7H110.3H110.4Q110.9 41.3 112 41.5Q113.1 41.8 113.7 42.5Q115.1 43.9 114.9 45.8Q114.8 47.8 112.8 51Q112.3 52.2 111.9 53Q111.5 53.7 111.5 54.1Q111.5 54.1 112.1 53.6Q112.8 53.2 113.6 52.5Q114.5 51.9 115 51.6Q115.4 51.2 116.6 50.3Q117.8 49.4 119.2 48.4Q120.7 47.4 121.4 47.1Q122.1 46.6 123 46.2Q124 45.8 124.2 45.8Q124.9 45.8 125.8 46.3Q126.8 46.8 127.6 47.6Q128.4 48.3 128.6 48.9Q128.6 49.1 128.6 49.5Q128.5 49.9 128.6 50.2Q128.7 51.2 128.7 52.8Q128.7 54.4 128.7 55.8Q128.6 57.2 128.3 58Q128.3 58 128.3 58.1Q128.4 58.3 128.6 58.4Q128.5 58.5 128.5 58.6Q128.6 58.8 128.6 58.8Q128.5 59 128.6 59.6Q128.7 60.1 129 60.7Q129.4 61.4 129.8 62.1Q130.1 62.9 129.5 63.7Q129 64.6 128 64.8ZM143.5 67Q141.5 67.3 139.6 66.7Q137.8 66 136.6 64.5Q135.5 63 135.5 60.8Q135.3 58.7 135.9 55.8Q136.6 53 137.8 50.1Q139.1 47.2 140.7 45.2Q142.1 43.5 143.5 42.1Q144.9 40.7 146.1 40.2Q147 39.8 148.2 39.7Q149.4 39.5 149.9 39.5Q151.1 39.8 152.4 40.4Q153.7 41.1 153.7 41.9Q153.7 41.9 153.9 42.1Q154.1 42.3 154.1 42.3Q154.5 42.3 154.9 43.3Q155.4 44.2 155.5 45.5Q155.7 46.7 155.3 47.5Q155 48.8 154.3 49.9Q153.5 51 152.9 51Q152.7 51 152.4 51.1Q152.2 51.1 152.2 51.5Q152.2 51.8 151.6 51.8Q151 51.8 150.4 51.4Q149.8 51.1 149.6 50.5Q149.6 50.2 149.8 49.5Q150 48.8 150.3 47.5Q150.7 45.5 150.3 44.9Q149.9 44.2 148.5 44.8Q146.7 45.8 145.4 47.3Q144.1 48.8 143 51.3Q141.9 53.8 140.9 58Q140.4 59.6 140.7 60.6Q140.9 61.7 141.1 61.7Q142.1 62 143.5 61.8Q144.9 61.7 145.6 61.3Q146.7 60.7 147.9 59.9Q149 59.1 150 58.3Q150.4 58.1 150.8 57.6Q151.1 57 151.7 56.7Q152.3 55.9 152.9 55.8Q153.6 55.7 154.4 55.7Q155 55.9 155.6 56.3Q156.1 56.7 156.4 57.1Q156.6 57.6 156.2 57.8Q155.9 57.8 155.9 57.9Q155.8 58.1 155.8 58.1Q156 58.4 155.3 59.3Q154.5 60.2 153.4 61.3Q152.3 62.4 151.3 63.2Q150.2 64 149.8 64Q149.1 64 149.1 64.4Q149.1 64.5 148.1 65.1Q147.1 65.7 145.8 66.2Q144.5 66.8 143.5 67ZM161.8 65.2Q161.5 64.7 160.8 64.2Q160.1 63.8 160.1 63.5Q160.1 63.2 159.9 62.8Q159.7 62.3 159.4 62Q159.1 61.6 159.6 60Q160.1 58.4 161.1 56.1Q162.2 53.8 163.5 51.4Q164.1 50.8 164.6 49.9Q165.2 49 165.5 48.7Q165.5 48.5 165.7 48.2Q165.9 48 166.2 48L166.5 47.2Q166.6 46.9 167.3 46Q167.9 45.2 169 44.2Q170 43.1 171.1 42.2Q172.1 41.3 172.8 40.9Q174.3 39.9 175.9 39.8Q177.5 39.8 178.6 40.7Q178.8 40.9 179.4 41.5Q180 42 180.8 42.7Q181.7 43.4 182.4 44L184.9 46.3L183.7 49.8Q182.8 52.6 183.3 54.7Q183.7 56.8 184.6 58.4Q184.9 59.2 185.8 59.7Q186.6 60.3 187.6 60.4Q188.1 60.5 188.6 60.8Q189.1 61.2 189.1 61.9Q189.1 63.2 188.7 63.7Q188.2 64.3 187.5 64.5Q185.2 64.7 183.2 63.7Q181.1 62.6 179.4 59.4Q179.1 59 178.7 57.8Q178.2 56.7 178.2 56.3Q177.9 56.7 177.3 57.4Q176.7 58.1 176.3 58.5Q171.3 63.6 167.7 65.2Q164.1 66.8 161.8 65.2ZM165 60.3Q165.3 60.6 166.5 60Q167.8 59.5 169.5 58.1Q171.9 56 173.9 54.2Q175.8 52.3 177.3 50.2L178.8 47.7Q178.1 46.1 177.5 45.5Q176.8 45 176.2 45Q175.3 45 173.8 46.4Q172.3 47.8 170.5 50.3Q168.7 52.8 166.8 56.1Q166 57.6 165.5 58.9Q165 60.3 165 60.3ZM192.9 65Q192.3 64.6 191.8 63.9Q191.3 63.3 191.5 61.9Q191.7 59.9 192 58.4Q192.4 56.9 192.9 55Q193 54.1 193.6 52.1Q194.3 50 195.2 47.7Q196.1 45.3 197 43.2Q198 41 198.7 40Q199.4 39.4 200.5 39.4Q201.7 39.5 202.3 40Q203 40.7 202.6 42.2Q202.2 43.8 200.6 47.1Q200 48.5 199.5 49.4Q199.1 50.3 199 50.7Q198.9 51.1 199.4 50.9Q199.8 50.2 200.9 49.2Q202 48.1 203.3 47.2Q204.5 46.2 205.7 45.4Q206.8 44.6 207.2 44.4Q207.8 44.1 208.5 43.8Q209.2 43.6 209.5 43.5Q211.1 42.7 212.9 42.9Q214.7 43.1 215.2 44.1Q215.2 44.7 215.6 45Q216 45.2 216 45.2Q216.3 45.2 216.3 45.4Q216.4 45.7 216.4 45.7Q216.4 46.1 215.5 46.7Q214.7 47.2 213.5 47.3Q212.6 47.4 211.9 47.6Q211.2 47.9 210.2 48.3Q207.6 49.9 205.3 51.2Q203.1 52.5 200.8 55Q200.3 55.5 199.8 56.1Q199.3 56.8 198.7 57.7Q198.4 58 198 59.2Q197.7 60.4 197.4 61.5Q197.2 62.6 197.2 62.8Q197.2 62.8 197 63.5Q196.8 64.1 196.3 64.8Q195.4 65.9 194.7 66Q194 66.2 192.9 65ZM222 67Q221.3 66.9 220.4 66.1Q219.5 65.4 218.9 64.4Q218.2 63.5 218 62.8Q218 62.7 217.8 62.4Q217.6 62.2 217.6 62.2Q217.4 62 217.3 60.4Q217.3 58.7 217.5 56.7Q217.7 54.7 218 53.5Q218.3 52.4 219 50.4Q219.7 48.5 220.2 47L222.1 42.9L219.3 42.1Q218.8 42 218.5 41.6Q218.2 41.2 218.2 40.9Q218.2 40.3 218.8 39.4Q219.5 38.4 219.7 38.4Q220.1 38.5 221 38.5Q222 38.5 222.9 38.4Q223.8 38.4 224 38.3Q224.3 38.2 224.6 37.9Q224.8 37.7 225 37.2Q225.3 36.4 225.6 35.9Q225.9 35.4 226.4 34.5Q226.9 33.6 227.2 33Q227.5 32.3 228.2 31.2Q228.6 30.7 229 30Q229.4 29.3 230 28.8Q230.7 28.3 231.7 28.2Q232.8 28.1 233.9 29Q234.4 29.7 234.5 30.2Q234.6 30.7 233.9 31.6Q233.4 32.8 232.6 33.9Q231.9 34.9 231.3 36.1Q230.1 37.7 230.8 37.9Q231.5 38.1 234.8 37.6Q236.8 37.3 237.7 37.9Q238.6 38.6 238.8 39.8Q239 41.4 238.4 41.8Q237.8 42.1 235.2 42.1Q233.5 42.4 232.3 42.5Q231.1 42.5 230.6 42.5Q229.7 42.6 229.4 42.6Q229.1 42.6 228.5 42.7Q228 42.8 227.7 43.2Q227.5 43.5 227.2 44Q226.9 44.3 226.4 45.5Q225.8 46.7 225 48.1Q224 51 223.3 53.8Q222.6 56.6 222.2 59.3Q221.9 60.8 222.2 61.5Q222.6 62.1 224.1 62.2Q224.8 62.3 226.4 62.2Q228 62.1 229 61.8Q229.7 61.5 230.6 61.1Q231.4 60.7 232.1 60.3Q232.7 59.9 233.4 59.5Q234 59.2 234 59.2Q234.4 58.6 234.9 59.1Q235.5 59.6 235.7 60.4Q235.7 61.2 235.4 62.3Q235 63.3 232.8 64.6Q229.7 66.6 226.7 67Q223.8 67.4 222 67Z" fill="#ece4d6" stroke="#ece4d6" stroke-width="0.7" pathLength="1" stroke-dasharray="1 1" stroke-dashoffset="0"><animate attributeName="stroke-dashoffset" values="1;1;0" keyTimes="0;0.111;0.778" dur="1.80s" fill="freeze"/><animate attributeName="fill-opacity" values="0;0;1" keyTimes="0;0.611;1" dur="1.80s" fill="freeze"/></path><path transform="translate(44.0 172.9)" d="M3.1 20.2V8.1L3.7 8.1V20.2Q3.7 21.5 4.2 22.2Q4.7 22.8 5.7 22.8Q5.7 22.8 5.7 23Q5.7 23.1 5.7 23.1Q5.2 23.1 4.6 23.1Q4.1 23.1 3.4 23.1Q2.7 23.1 2.1 23.1Q1.5 23.1 1 23.1Q0.9 23.1 0.9 23Q0.9 22.8 1 22.8Q2.1 22.8 2.6 22.2Q3.1 21.5 3.1 20.2ZM15.7 23.4Q15.7 23.5 15.6 23.5Q15.5 23.5 15.4 23.5L3.7 9.5Q2.8 8.5 2.1 8.1Q1.5 7.8 0.9 7.8Q0.8 7.8 0.8 7.6Q0.8 7.5 0.9 7.5Q1.3 7.5 1.8 7.5Q2.3 7.5 2.7 7.5Q3.3 7.5 3.8 7.5Q4.3 7.5 4.6 7.5Q4.9 7.5 5 7.8Q5.2 8.1 5.8 8.8L15.5 20.5ZM15.7 10.4V23.4L15.1 22.7V10.4Q15.1 9.1 14.6 8.4Q14.1 7.8 13.1 7.8Q13.1 7.8 13.1 7.6Q13.1 7.5 13.1 7.5Q13.6 7.5 14.2 7.5Q14.7 7.6 15.4 7.6Q16 7.6 16.6 7.5Q17.2 7.5 17.7 7.5Q17.8 7.5 17.8 7.6Q17.8 7.8 17.7 7.8Q16.7 7.8 16.2 8.4Q15.7 9.1 15.7 10.4ZM24.1 23.4Q22.6 23.4 21.4 22.7Q20.3 22 19.7 20.8Q19.1 19.6 19.1 18.2Q19.1 16.9 19.6 15.9Q20.1 15 20.9 14.3Q21.7 13.7 22.6 13.4Q23.6 13.1 24.5 13.1Q26.1 13.1 27.2 13.9Q28.3 14.6 28.9 15.8Q29.4 17 29.4 18.3Q29.4 19.9 28.7 21Q28 22.2 26.7 22.8Q25.5 23.4 24.1 23.4ZM24.8 22.9Q26 22.9 26.7 22Q27.4 21 27.4 19Q27.4 17.4 26.9 16.2Q26.4 15 25.6 14.3Q24.7 13.6 23.7 13.6Q22.5 13.6 21.8 14.6Q21.1 15.5 21.1 17.3Q21.1 18.9 21.6 20.2Q22.1 21.5 22.9 22.2Q23.7 22.9 24.8 22.9ZM40.9 23.4Q39.9 23.4 39 22.8Q38.1 22.2 37.6 21.2Q37 20.1 37 18.6Q37 17.2 37.6 16.1Q38.1 15.1 39 14.4Q39.8 13.8 40.8 13.4Q41.8 13.1 42.7 13.1Q43.6 13.1 44.4 13.4Q45.2 13.7 45.8 14.1L45.4 15.9Q44.8 14.9 44.1 14.3Q43.3 13.7 42.1 13.7Q40.7 13.7 39.8 14.7Q38.9 15.7 38.9 17.9Q38.9 19.3 39.3 20.3Q39.7 21.3 40.5 21.9Q41.2 22.4 42 22.4Q43.1 22.4 43.9 21.8Q44.8 21.2 45.5 20.4L45.8 20.6Q45.2 21.2 44.5 21.8Q43.8 22.5 42.9 23Q42 23.4 40.9 23.4ZM46.7 5.2V20.3Q46.7 21.2 46.9 21.6Q47.1 22 47.5 22Q47.7 22 48.1 21.9Q48.4 21.8 48.7 21.6Q48.8 21.6 48.9 21.7Q49 21.9 48.9 21.9L45.9 23.3Q45.8 23.4 45.8 23.4Q45.5 23.4 45.2 22.8Q45 22.2 45 21.1V8.2Q45 7.4 44.8 7Q44.7 6.6 44.2 6.6Q44 6.6 43.7 6.6Q43.5 6.7 43.1 6.9Q43 6.9 42.9 6.8Q42.9 6.6 43 6.6L46.3 5Q46.3 5 46.4 5Q46.5 5 46.6 5.1Q46.7 5.1 46.7 5.2ZM54.6 23.4Q53 23.4 52 22.7Q50.9 22 50.4 20.9Q49.8 19.8 49.8 18.6Q49.8 17.1 50.5 15.9Q51.2 14.7 52.5 13.9Q53.7 13.2 55.2 13.2Q56.7 13.2 57.4 14Q58.2 14.7 58.2 16.1Q58.2 16.4 58.2 16.6Q58.1 16.8 57.9 16.8H56.2Q56.3 15.3 55.8 14.5Q55.3 13.7 54.3 13.7Q53.1 13.7 52.4 14.8Q51.7 15.8 51.7 17.6Q51.7 19 52.2 20.1Q52.6 21.2 53.5 21.8Q54.4 22.4 55.7 22.4Q56.5 22.4 57 22.2Q57.5 22 58.1 21.6Q58.2 21.6 58.3 21.7Q58.3 21.8 58.3 21.9Q57.4 22.7 56.5 23Q55.6 23.4 54.6 23.4ZM51.2 16.8 51.1 16.4 56.7 16.3V16.8ZM61.9 14.9Q61.9 15.5 62.2 15.9Q62.5 16.4 63 16.7Q63.5 17 64.1 17.3Q64.7 17.6 65.3 18Q65.9 18.4 66.2 18.9Q66.6 19.4 66.6 20.3Q66.6 21.1 66.2 21.8Q65.8 22.5 65 22.9Q64.2 23.4 63 23.4Q62.4 23.4 61.8 23.2Q61.2 23.1 60.6 22.6Q60.5 22.6 60.5 22.5Q60.4 22.4 60.4 22.3L60.4 20.2Q60.4 20.2 60.5 20.2Q60.6 20.1 60.7 20.2Q61 21 61.4 21.6Q61.9 22.2 62.5 22.6Q63.1 22.9 63.7 22.9Q64.5 22.9 64.9 22.5Q65.3 22.2 65.2 21.4Q65.2 20.7 64.9 20.2Q64.5 19.8 64 19.5Q63.5 19.1 63 18.9Q62.4 18.6 61.8 18.2Q61.3 17.9 60.9 17.3Q60.5 16.8 60.5 16Q60.5 15 61 14.4Q61.5 13.7 62.3 13.4Q63.1 13.2 64 13.2Q64.5 13.2 65 13.2Q65.4 13.3 65.9 13.5Q66.1 13.6 66.1 13.8Q66.1 14.2 66.1 14.7Q66.1 15.2 66.1 15.8Q66.1 15.8 65.9 15.8Q65.8 15.8 65.8 15.8Q65.8 15.2 65.4 14.7Q65 14.3 64.4 14Q63.8 13.6 63.1 13.6Q62.6 13.6 62.2 13.9Q61.9 14.2 61.9 14.9ZM73.5 23.4Q71.8 23.4 70.7 22.7Q69.6 21.9 69.1 20.8Q68.5 19.6 68.5 18.5Q68.5 17.2 69 16.2Q69.5 15.3 70.4 14.6Q71.2 13.9 72.2 13.6Q73.2 13.2 74.1 13.2Q74.9 13.2 75.5 13.4Q76.2 13.6 76.7 14Q77.1 14.4 77.1 14.9Q77.1 15.2 76.9 15.5Q76.6 15.8 76.1 15.8Q75.6 15.8 75.3 15.5Q75 15.2 74.9 14.8Q74.6 14.3 74.3 14Q74 13.7 73.3 13.7Q71.9 13.7 71.2 14.8Q70.5 15.9 70.5 17.7Q70.5 19 70.9 20Q71.3 21.1 72.2 21.8Q73.1 22.4 74.6 22.4Q75.3 22.4 75.9 22.2Q76.5 22.1 77.1 21.6Q77.1 21.6 77.2 21.7Q77.3 21.8 77.3 21.8Q76.4 22.6 75.5 23Q74.6 23.4 73.5 23.4ZM81.8 16.3 81.6 16Q82.6 14.9 83.2 14.3Q83.8 13.7 84.3 13.5Q84.7 13.2 85.1 13.2Q85.6 13.2 86.2 13.5Q86.7 13.9 86.7 14.4Q86.7 14.7 86.5 15Q86.2 15.3 85.8 15.3Q85.4 15.3 85.1 15Q84.9 14.8 84.7 14.6Q84.4 14.4 84 14.4Q83.8 14.4 83.6 14.5Q83.3 14.7 82.9 15.1Q82.5 15.5 81.8 16.3ZM79.1 23.1Q79 23.1 79 23Q79 22.8 79.1 22.8Q80 22.8 80.3 22.5Q80.6 22.1 80.6 21.1V16.2Q80.6 15.4 80.4 15Q80.2 14.6 79.8 14.6Q79.5 14.6 79.2 14.7Q78.9 14.8 78.5 15Q78.4 15 78.3 14.9Q78.2 14.8 78.3 14.7L81.4 13.2Q81.5 13.2 81.6 13.2Q81.8 13.2 82 13.8Q82.3 14.3 82.3 15.4V21.1Q82.3 21.8 82.5 22.1Q82.7 22.5 83.2 22.7Q83.7 22.8 84.7 22.8Q84.8 22.8 84.8 23Q84.8 23.1 84.7 23.1Q84.1 23.1 83.2 23.1Q82.4 23.1 81.5 23.1Q80.8 23.1 80.2 23.1Q79.6 23.1 79.1 23.1ZM88.5 23.1Q88.4 23.1 88.4 23Q88.4 22.8 88.5 22.8Q89.4 22.8 89.7 22.5Q90 22.1 90 21.1V16.5Q90 15.6 89.8 15.2Q89.7 14.8 89.2 14.8Q89 14.8 88.7 14.9Q88.5 15 88.1 15.1Q88 15.1 88 15Q87.9 14.9 88 14.8L91.4 13.2Q91.5 13.2 91.5 13.2Q91.6 13.2 91.7 13.3Q91.8 13.4 91.8 13.5Q91.8 13.7 91.7 14.4Q91.7 15.2 91.7 16.4V21.1Q91.7 22.1 92 22.5Q92.3 22.8 93.2 22.8Q93.3 22.8 93.3 23Q93.3 23.1 93.2 23.1Q92.7 23.1 92.1 23.1Q91.5 23.1 90.8 23.1Q90.2 23.1 89.6 23.1Q89 23.1 88.5 23.1ZM90.7 10.4Q90.1 10.4 89.8 10.1Q89.5 9.8 89.5 9.2Q89.5 8.7 89.8 8.4Q90.1 8.1 90.7 8.1Q91.3 8.1 91.6 8.4Q91.9 8.7 91.9 9.2Q91.9 10.4 90.7 10.4ZM94.8 30Q94.7 30 94.7 29.8Q94.7 29.7 94.8 29.7Q95.7 29.7 96 29.4Q96.3 29 96.3 28V16.3Q96.3 15.4 96.1 15Q95.9 14.6 95.4 14.6Q95.2 14.6 94.9 14.7Q94.5 14.8 94.2 15Q94.1 15 94 14.9Q93.9 14.8 94 14.7L97 13.3Q97.1 13.2 97.2 13.2Q97.5 13.2 97.7 13.8Q98 14.4 98 15.5V28Q98 28.7 98.2 29Q98.3 29.4 98.9 29.5Q99.4 29.7 100.4 29.7Q100.5 29.7 100.5 29.8Q100.5 30 100.4 30Q99.7 30 98.9 30Q98.1 29.9 97.1 29.9Q96.5 29.9 95.9 30Q95.2 30 94.8 30ZM100.5 23.4Q99.5 23.4 98.8 23.2Q98.1 23 97.2 22.5L97.7 21Q98.3 21.8 99.1 22.4Q99.9 22.9 101.1 22.9Q102.4 22.9 103.2 21.8Q104 20.7 104 18.5Q104 16.4 103.1 15.3Q102.1 14.2 100.8 14.2Q99.7 14.2 99 14.8Q98.2 15.4 97.4 16.2L97.2 15.9Q98.5 14.5 99.7 13.8Q100.8 13.1 102 13.1Q103.1 13.1 103.9 13.7Q104.8 14.2 105.4 15.2Q105.9 16.2 105.9 17.7Q105.9 19.3 105.4 20.4Q104.9 21.4 104 22.1Q103.2 22.8 102.3 23.1Q101.3 23.4 100.5 23.4ZM111.5 23.4Q110.9 23.4 110.3 23.2Q109.7 23 109.4 22.5Q109 22.1 109 21.3V15.5Q109 14.9 108.9 14.6Q108.8 14.3 108.5 14.2Q108.3 14.1 107.7 14.1Q107.6 14.1 107.6 13.9Q107.6 13.8 107.7 13.8Q108.8 13.7 109.5 13.2Q110.2 12.7 110.4 11.8Q110.4 11.7 110.6 11.7Q110.7 11.7 110.7 11.8V20.4Q110.7 21.5 111.2 21.9Q111.8 22.4 112.6 22.4Q113.3 22.4 113.8 22.2Q114.3 22 114.6 21.7Q114.7 21.6 114.8 21.7Q114.9 21.9 114.8 21.9Q113.9 22.7 113.1 23.1Q112.3 23.4 111.5 23.4ZM114 14.7Q113 14.4 112.1 14.4Q111.2 14.3 110.2 14.3V13.7Q111.2 13.7 112.1 13.6Q113.1 13.6 114.1 13.5Q114.2 13.5 114.2 13.6Q114.3 13.8 114.3 14.1Q114.3 14.3 114.2 14.5Q114.1 14.7 114 14.7ZM116.5 23.1Q116.4 23.1 116.4 23Q116.4 22.8 116.5 22.8Q117.4 22.8 117.7 22.5Q118 22.1 118 21.1V16.5Q118 15.6 117.8 15.2Q117.6 14.8 117.2 14.8Q117 14.8 116.7 14.9Q116.5 15 116.1 15.1Q116 15.1 115.9 15Q115.9 14.9 116 14.8L119.4 13.2Q119.4 13.2 119.5 13.2Q119.5 13.2 119.6 13.3Q119.7 13.4 119.7 13.5Q119.7 13.7 119.7 14.4Q119.7 15.2 119.7 16.4V21.1Q119.7 22.1 120 22.5Q120.3 22.8 121.2 22.8Q121.3 22.8 121.3 23Q121.3 23.1 121.2 23.1Q120.7 23.1 120.1 23.1Q119.5 23.1 118.8 23.1Q118.2 23.1 117.6 23.1Q116.9 23.1 116.5 23.1ZM118.7 10.4Q118.1 10.4 117.8 10.1Q117.4 9.8 117.4 9.2Q117.4 8.7 117.8 8.4Q118.1 8.1 118.7 8.1Q119.2 8.1 119.5 8.4Q119.8 8.7 119.8 9.2Q119.8 10.4 118.7 10.4ZM127.8 23.4Q126.3 23.4 125.2 22.7Q124.1 22 123.5 20.8Q122.9 19.6 122.9 18.2Q122.9 16.9 123.4 15.9Q123.8 15 124.6 14.3Q125.5 13.7 126.4 13.4Q127.3 13.1 128.3 13.1Q129.8 13.1 130.9 13.9Q132 14.6 132.6 15.8Q133.2 17 133.2 18.3Q133.2 19.9 132.4 21Q131.7 22.2 130.5 22.8Q129.3 23.4 127.8 23.4ZM128.6 22.9Q129.8 22.9 130.5 22Q131.2 21 131.2 19Q131.2 17.4 130.7 16.2Q130.2 15 129.3 14.3Q128.5 13.6 127.4 13.6Q126.2 13.6 125.5 14.6Q124.9 15.5 124.9 17.3Q124.9 18.9 125.3 20.2Q125.8 21.5 126.6 22.2Q127.5 22.9 128.6 22.9ZM141.8 23.1Q141.8 23.1 141.8 23Q141.8 22.8 141.8 22.8Q142.8 22.8 143 22.5Q143.3 22.1 143.3 21.1V17.2Q143.3 15.7 142.8 15Q142.3 14.4 141.1 14.4Q140.3 14.4 139.4 14.9Q138.5 15.4 137.9 16.3L137.7 16Q138.8 14.6 139.9 13.9Q141 13.1 142.1 13.1Q143.5 13.1 144.3 13.9Q145 14.7 145 16.2V21.1Q145 22.1 145.3 22.5Q145.6 22.8 146.5 22.8Q146.6 22.8 146.6 23Q146.6 23.1 146.5 23.1Q146.1 23.1 145.5 23.1Q144.9 23.1 144.2 23.1Q143.5 23.1 142.9 23.1Q142.3 23.1 141.8 23.1ZM135.1 23.1Q135 23.1 135 23Q135 22.8 135.1 22.8Q136 22.8 136.3 22.5Q136.6 22.1 136.6 21.1V16.2Q136.6 15.4 136.4 15Q136.2 14.6 135.8 14.6Q135.5 14.6 135.2 14.7Q134.9 14.8 134.5 15Q134.4 15 134.3 14.9Q134.2 14.8 134.3 14.7L137.4 13.2Q137.5 13.2 137.6 13.2Q137.8 13.2 138 13.8Q138.3 14.3 138.3 15.4V21.1Q138.3 22.1 138.6 22.5Q138.9 22.8 139.8 22.8Q139.9 22.8 139.9 23Q139.9 23.1 139.8 23.1Q139.4 23.1 138.7 23.1Q138.1 23.1 137.5 23.1Q136.8 23.1 136.2 23.1Q135.6 23.1 135.1 23.1ZM163.8 13.5Q163.8 13.5 163.8 13.6Q163.8 13.8 163.8 13.8Q163.1 13.8 162.6 14.3Q162.1 14.8 161.7 15.9L158.7 23.8Q157.8 26.2 157 27.6Q156.1 29 155.3 29.6Q154.4 30.1 153.4 30.1Q152.8 30.1 152.4 29.9Q152 29.6 152 29.1Q152 28.6 152.3 28.4Q152.6 28.2 152.9 28.2Q153.4 28.2 153.6 28.3Q153.9 28.5 154.1 28.6Q154.4 28.8 154.8 28.8Q155.4 28.8 155.9 28.3Q156.5 27.7 157.1 26.4Q157.7 25.1 158.6 22.8L158.5 23.7L154.5 15.5Q153.9 14.4 153.6 14.1Q153.3 13.8 152.8 13.8Q152.8 13.8 152.8 13.6Q152.8 13.5 152.8 13.5Q153.3 13.5 153.7 13.5Q154.2 13.5 154.7 13.5Q155.5 13.5 156.1 13.5Q156.8 13.5 157.3 13.5Q157.4 13.5 157.4 13.6Q157.4 13.8 157.3 13.8Q156.5 13.8 156.1 14Q155.7 14.2 156 14.7L159.4 21.6L158.7 22.8L161.1 15.9Q161.5 14.8 161.1 14.3Q160.7 13.8 159.5 13.8Q159.4 13.8 159.4 13.6Q159.4 13.5 159.5 13.5Q160.1 13.5 160.6 13.5Q161.2 13.5 162 13.5Q162.6 13.5 162.9 13.5Q163.3 13.5 163.8 13.5ZM169.3 23.4Q167.8 23.4 166.7 22.7Q165.6 22 165.1 20.9Q164.6 19.8 164.6 18.6Q164.6 17.1 165.3 15.9Q166 14.7 167.2 13.9Q168.4 13.2 170 13.2Q171.4 13.2 172.2 14Q173 14.7 173 16.1Q173 16.4 172.9 16.6Q172.9 16.8 172.7 16.8H171Q171 15.3 170.6 14.5Q170.1 13.7 169.1 13.7Q167.9 13.7 167.2 14.8Q166.5 15.8 166.5 17.6Q166.5 19 166.9 20.1Q167.4 21.2 168.3 21.8Q169.1 22.4 170.4 22.4Q171.2 22.4 171.8 22.2Q172.3 22 172.9 21.6Q172.9 21.6 173 21.7Q173.1 21.8 173 21.9Q172.1 22.7 171.2 23Q170.3 23.4 169.3 23.4ZM165.9 16.8 165.9 16.4 171.5 16.3V16.8ZM178.6 23.4Q178 23.4 177.5 23.2Q176.9 23 176.5 22.5Q176.2 22.1 176.2 21.3V15.5Q176.2 14.9 176.1 14.6Q176 14.3 175.7 14.2Q175.4 14.1 174.9 14.1Q174.8 14.1 174.8 13.9Q174.8 13.8 174.9 13.8Q176 13.7 176.7 13.2Q177.3 12.7 177.5 11.8Q177.5 11.7 177.7 11.7Q177.9 11.7 177.9 11.8V20.4Q177.9 21.5 178.4 21.9Q178.9 22.4 179.8 22.4Q180.4 22.4 181 22.2Q181.5 22 181.8 21.7Q181.9 21.6 182 21.7Q182.1 21.9 182 21.9Q181.1 22.7 180.3 23.1Q179.5 23.4 178.6 23.4ZM181.2 14.7Q180.2 14.4 179.3 14.4Q178.4 14.3 177.3 14.3V13.7Q178.3 13.7 179.3 13.6Q180.2 13.6 181.3 13.5Q181.4 13.5 181.4 13.6Q181.5 13.8 181.5 14.1Q181.5 14.3 181.4 14.5Q181.3 14.7 181.2 14.7ZM185 23.4Q184.4 23.4 184.1 23Q183.7 22.7 183.7 22.2Q183.7 21.6 184.1 21.3Q184.4 21 185 21Q185.5 21 185.8 21.3Q186.2 21.6 186.2 22.2Q186.2 22.7 185.8 23Q185.5 23.4 185 23.4Z" fill="#8a7f76"/><circle cx="51" cy="269" r="7" fill="#f1e05a"/><path transform="translate(68.0 258.7)" d="M4 15.5Q2.4 15.5 1.5 14.6Q0.6 13.7 0.6 12.1H2.2Q2.2 13 2.7 13.5Q3.2 14 4 14Q4.9 14 5.4 13.5Q5.9 13 5.9 12.1V5.8H3.3V4.3H7.5V12.1Q7.5 13.7 6.6 14.6Q5.7 15.5 4 15.5ZM14.2 15.4Q12.9 15.4 12.1 14.8Q11.4 14.1 11.4 13Q11.4 11.8 12.2 11.1Q13 10.5 14.3 10.5H16.6V9.7Q16.6 9 16.2 8.6Q15.8 8.3 15 8.3Q14.4 8.3 13.9 8.6Q13.5 8.8 13.4 9.3H11.8Q11.9 8.2 12.8 7.6Q13.7 6.9 15.1 6.9Q16.6 6.9 17.4 7.6Q18.3 8.4 18.3 9.7V15.3H16.7V13.8H16.4L16.7 13.5Q16.7 14.4 16 14.9Q15.3 15.4 14.2 15.4ZM14.7 14.2Q15.5 14.2 16.1 13.8Q16.6 13.3 16.6 12.6V11.5H14.4Q13.8 11.5 13.4 11.9Q13 12.2 13 12.8Q13 13.5 13.5 13.8Q13.9 14.2 14.7 14.2ZM24.4 15.3 21.7 7H23.4L25.1 12.3Q25.2 12.8 25.3 13.3Q25.5 13.7 25.5 14Q25.6 13.7 25.7 13.3Q25.9 12.8 26 12.3L27.7 7H29.3L26.6 15.3ZM35.2 15.4Q33.9 15.4 33.1 14.8Q32.4 14.1 32.4 13Q32.4 11.8 33.2 11.1Q34 10.5 35.3 10.5H37.6V9.7Q37.6 9 37.2 8.6Q36.8 8.3 36 8.3Q35.4 8.3 34.9 8.6Q34.5 8.8 34.4 9.3H32.8Q32.9 8.2 33.8 7.6Q34.7 6.9 36.1 6.9Q37.6 6.9 38.4 7.6Q39.3 8.4 39.3 9.7V15.3H37.7V13.8H37.4L37.7 13.5Q37.7 14.4 37 14.9Q36.3 15.4 35.2 15.4ZM35.7 14.2Q36.5 14.2 37.1 13.8Q37.6 13.3 37.6 12.6V11.5H35.4Q34.8 11.5 34.4 11.9Q34 12.2 34 12.8Q34 13.5 34.5 13.8Q34.9 14.2 35.7 14.2ZM46.5 15.4Q45.4 15.4 44.6 15.1Q43.8 14.7 43.4 14Q43 13.3 43 12.4H44.6Q44.6 13.1 45.1 13.6Q45.6 14 46.6 14Q47.4 14 47.9 13.6Q48.4 13.2 48.4 12.4Q48.4 11.8 48.1 11.4Q47.7 10.9 47.1 10.8L45.7 10.3Q44.5 10 43.9 9.2Q43.2 8.3 43.2 7.2Q43.2 6.3 43.6 5.6Q44 4.9 44.8 4.6Q45.5 4.2 46.6 4.2Q48.1 4.2 49 5Q49.9 5.8 49.9 7.2H48.3Q48.3 6.4 47.8 6Q47.4 5.6 46.5 5.6Q45.7 5.6 45.3 6Q44.8 6.4 44.8 7.1Q44.8 7.7 45.2 8.1Q45.5 8.6 46.1 8.8L47.5 9.2Q48.7 9.5 49.4 10.4Q50 11.2 50 12.4Q50 13.3 49.6 14Q49.2 14.7 48.4 15.1Q47.6 15.4 46.5 15.4ZM57.1 15.4Q56 15.4 55.3 15.1Q54.5 14.7 54.1 14Q53.7 13.2 53.7 12.3V10.1Q53.7 9.1 54.1 8.4Q54.5 7.7 55.3 7.3Q56 6.9 57.1 6.9Q58.5 6.9 59.4 7.7Q60.3 8.5 60.4 9.8H58.8Q58.7 9.1 58.3 8.7Q57.8 8.3 57.1 8.3Q56.2 8.3 55.8 8.8Q55.3 9.2 55.3 10.1V12.3Q55.3 13.1 55.8 13.6Q56.2 14 57.1 14Q57.8 14 58.3 13.6Q58.7 13.2 58.8 12.5H60.4Q60.3 13.9 59.4 14.7Q58.5 15.4 57.1 15.4ZM64.5 15.3V7H66.1V8.6H66.5L66 9.6Q66 8.3 66.6 7.6Q67.2 6.9 68.3 6.9Q69.6 6.9 70.4 7.7Q71.2 8.5 71.2 10V10.5H69.5V10.1Q69.5 9.2 69.1 8.7Q68.6 8.3 67.8 8.3Q67 8.3 66.6 8.7Q66.2 9.2 66.2 10.1V15.3ZM74.7 15.3V13.8H77.6V8.5H75.1V7H79.2V13.8H81.8V15.3ZM78.2 5.6Q77.7 5.6 77.4 5.3Q77.1 5.1 77.1 4.6Q77.1 4.1 77.4 3.9Q77.7 3.6 78.2 3.6Q78.8 3.6 79.1 3.9Q79.4 4.1 79.4 4.6Q79.4 5.1 79.1 5.3Q78.8 5.6 78.2 5.6ZM85.3 18V7H86.9V8.6H87.2L86.9 9Q86.9 8 87.5 7.5Q88.1 6.9 89.1 6.9Q90.3 6.9 91.1 7.7Q91.8 8.6 91.8 10V12.3Q91.8 13.3 91.5 14Q91.2 14.7 90.6 15.1Q89.9 15.4 89.1 15.4Q88.1 15.4 87.5 14.9Q86.9 14.3 86.9 13.3L87.2 13.7H86.8L86.9 15.6V18ZM88.5 14Q89.3 14 89.8 13.6Q90.2 13.1 90.2 12.3V10.1Q90.2 9.2 89.8 8.8Q89.3 8.3 88.5 8.3Q87.8 8.3 87.3 8.8Q86.9 9.3 86.9 10.1V12.3Q86.9 13.1 87.3 13.6Q87.8 14 88.5 14ZM99.9 15.3Q98.8 15.3 98.1 14.7Q97.5 14.1 97.5 13V8.5H95.2V7H97.5V4.7H99.1V7H102.4V8.5H99.1V13Q99.1 13.8 100 13.8H102.2V15.3Z" fill="#ece4d6"/><path transform="translate(201.5 258.7)" d="M4.5 15.4Q3.4 15.4 2.6 15.1Q1.8 14.7 1.4 14Q1 13.3 1 12.4H2.6Q2.6 13.1 3.1 13.6Q3.6 14 4.6 14Q5.4 14 5.9 13.6Q6.4 13.2 6.4 12.4Q6.4 11.8 6.1 11.4Q5.7 10.9 5.1 10.8L3.7 10.3Q2.5 10 1.9 9.2Q1.2 8.3 1.2 7.2Q1.2 6.3 1.6 5.6Q2 4.9 2.8 4.6Q3.5 4.2 4.6 4.2Q6.1 4.2 7 5Q7.9 5.8 7.9 7.2H6.3Q6.3 6.4 5.8 6Q5.4 5.6 4.5 5.6Q3.7 5.6 3.3 6Q2.8 6.4 2.8 7.1Q2.8 7.7 3.2 8.1Q3.5 8.6 4.1 8.8L5.5 9.2Q6.7 9.5 7.4 10.4Q8 11.2 8 12.4Q8 13.3 7.6 14Q7.2 14.7 6.4 15.1Q5.6 15.4 4.5 15.4ZM14.2 15.3V5.8H11.3V4.3H18.7V5.8H15.8V15.3ZM21.6 15.3 24.4 4.3H26.6L29.4 15.3H27.7L27.1 12.5H24L23.3 15.3ZM24.3 11.2H26.7L26 8Q25.8 7.2 25.7 6.6Q25.5 5.9 25.5 5.7Q25.5 5.9 25.3 6.6Q25.2 7.2 25 8ZM32.8 15.3V4.3H36.2Q37.2 4.3 38 4.7Q38.8 5.1 39.2 5.9Q39.6 6.6 39.6 7.6Q39.6 8.7 39.1 9.5Q38.5 10.3 37.5 10.6L39.8 15.3H37.9L35.9 10.8H34.4V15.3ZM34.4 9.4H36.2Q37 9.4 37.5 8.9Q38 8.4 38 7.6Q38 6.8 37.5 6.3Q37 5.8 36.2 5.8H34.4ZM46.5 15.4Q45.4 15.4 44.6 15.1Q43.8 14.7 43.4 14Q43 13.3 43 12.4H44.6Q44.6 13.1 45.1 13.6Q45.6 14 46.6 14Q47.4 14 47.9 13.6Q48.4 13.2 48.4 12.4Q48.4 11.8 48.1 11.4Q47.7 10.9 47.1 10.8L45.7 10.3Q44.5 10 43.9 9.2Q43.2 8.3 43.2 7.2Q43.2 6.3 43.6 5.6Q44 4.9 44.8 4.6Q45.5 4.2 46.6 4.2Q48.1 4.2 49 5Q49.9 5.8 49.9 7.2H48.3Q48.3 6.4 47.8 6Q47.4 5.6 46.5 5.6Q45.7 5.6 45.3 6Q44.8 6.4 44.8 7.1Q44.8 7.7 45.2 8.1Q45.5 8.6 46.1 8.8L47.5 9.2Q48.7 9.5 49.4 10.4Q50 11.2 50 12.4Q50 13.3 49.6 14Q49.2 14.7 48.4 15.1Q47.6 15.4 46.5 15.4ZM67.5 15.4Q66.5 15.4 65.7 15Q64.9 14.6 64.5 13.9Q64.1 13.2 64.1 12.2V7.4Q64.1 6.5 64.5 5.7Q64.9 5 65.7 4.6Q66.5 4.2 67.5 4.2Q68.5 4.2 69.3 4.6Q70.1 5 70.5 5.7Q70.9 6.5 70.9 7.4V12.2Q70.9 13.2 70.5 13.9Q70.1 14.6 69.3 15Q68.5 15.4 67.5 15.4ZM67.5 14.1Q68.3 14.1 68.8 13.5Q69.3 13 69.3 12.2V7.4Q69.3 6.6 68.8 6.1Q68.3 5.6 67.5 5.6Q66.7 5.6 66.2 6.1Q65.7 6.6 65.7 7.4V12.2Q65.7 13 66.2 13.5Q66.7 14.1 67.5 14.1ZM67.5 10.8Q67.1 10.8 66.8 10.5Q66.6 10.2 66.6 9.8Q66.6 9.4 66.8 9.1Q67.1 8.8 67.5 8.8Q67.9 8.8 68.2 9.1Q68.4 9.4 68.4 9.8Q68.4 10.2 68.2 10.5Q67.9 10.8 67.5 10.8Z" fill="#8a7f76"/><path transform="translate(747.0 258.7)" d="M4.5 15.4Q3.5 15.4 2.7 15.1Q2 14.7 1.6 14Q1.2 13.2 1.2 12.3V7.4Q1.2 6.4 1.6 5.7Q2 5 2.7 4.6Q3.5 4.2 4.5 4.2Q5.5 4.2 6.3 4.6Q7 5 7.4 5.7Q7.8 6.4 7.8 7.4V12.3Q7.8 13.2 7.4 14Q7 14.7 6.3 15.1Q5.5 15.4 4.5 15.4ZM4.5 14Q5.3 14 5.8 13.6Q6.2 13.1 6.2 12.3V7.4Q6.2 6.5 5.8 6.1Q5.3 5.6 4.5 5.6Q3.7 5.6 3.2 6.1Q2.8 6.5 2.8 7.4V12.3Q2.8 13.1 3.3 13.6Q3.7 14 4.5 14ZM13.3 15.3V4.3H16.9Q17.9 4.3 18.7 4.8Q19.5 5.2 19.9 5.9Q20.3 6.6 20.3 7.7Q20.3 8.6 19.9 9.4Q19.5 10.1 18.7 10.5Q17.9 11 16.9 11H14.9V15.3ZM14.9 9.5H16.9Q17.7 9.5 18.2 9Q18.7 8.5 18.7 7.7Q18.7 6.8 18.2 6.3Q17.7 5.8 16.9 5.8H14.9ZM25.4 15.3V4.3H31.8V5.8H27V8.9H31.3V10.3H27V13.9H31.8V15.3ZM37.2 15.3V4.3H39.3L42.5 13.5Q42.4 13 42.4 12.4Q42.3 11.8 42.3 11.2Q42.3 10.5 42.3 10V4.3H43.8V15.3H41.7L38.6 6.2Q38.6 6.6 38.6 7.2Q38.7 7.8 38.7 8.4Q38.7 9 38.7 9.6V15.3ZM61 14.2 60.1 13.2 65.4 7.9Q65.7 7.7 65.9 7.5Q66.1 7.3 66.2 7.2L66.2 7.1Q66.1 7.1 65.7 7.1Q65.4 7.2 65 7.2H62.1V6H68.3V12.2H67.1V9.2Q67.1 8.9 67.2 8.5Q67.2 8.1 67.2 7.9L67.1 7.9Q67 8.1 66.8 8.3Q66.6 8.6 66.4 8.8Z" fill="#d4202c"/><line x1="44" y1="304" x2="816" y2="304" stroke="#221a1a" stroke-width="1.5"/><path transform="translate(44.0 317.8)" d="M3.6 12.4Q2.4 12.4 1.7 11.7Q1 11 1 9.8V5.6H2.3V9.8Q2.3 10.5 2.6 10.9Q3 11.2 3.6 11.2Q4.2 11.2 4.6 10.9Q4.9 10.5 4.9 9.8V5.6H6.2V9.8Q6.2 11 5.5 11.7Q4.8 12.4 3.6 12.4ZM9.4 14.4V5.6H10.7V6.9H11L10.7 7.2Q10.7 6.4 11.2 6Q11.7 5.5 12.5 5.5Q13.5 5.5 14.1 6.2Q14.7 6.9 14.7 8V9.9Q14.7 10.6 14.4 11.2Q14.1 11.7 13.6 12.1Q13.2 12.4 12.5 12.4Q11.7 12.4 11.2 11.9Q10.7 11.5 10.7 10.7L11 11H10.7L10.7 12.5V14.4ZM12 11.2Q12.7 11.2 13 10.9Q13.4 10.5 13.4 9.8V8.1Q13.4 7.4 13 7Q12.7 6.6 12 6.6Q11.4 6.6 11.1 7Q10.7 7.4 10.7 8.1V9.8Q10.7 10.5 11.1 10.9Q11.4 11.2 12 11.2ZM19.9 12.4Q18.9 12.4 18.3 11.7Q17.7 11 17.7 9.9V8Q17.7 6.9 18.3 6.2Q18.9 5.5 19.9 5.5Q20.7 5.5 21.2 6Q21.7 6.4 21.7 7.2L21.4 6.9H21.7L21.7 5.4V3.5H23V12.2H21.7V11H21.4L21.7 10.7Q21.7 11.5 21.2 11.9Q20.7 12.4 19.9 12.4ZM20.4 11.2Q21 11.2 21.3 10.9Q21.7 10.5 21.7 9.8V8.1Q21.7 7.4 21.3 7Q21 6.6 20.4 6.6Q19.7 6.6 19.4 7Q19 7.4 19 8.1V9.8Q19 10.5 19.4 10.9Q19.7 11.2 20.4 11.2ZM28.1 12.4Q27.1 12.4 26.5 11.8Q25.9 11.3 25.9 10.4Q25.9 9.4 26.5 8.9Q27.2 8.4 28.3 8.4H30.1V7.8Q30.1 7.2 29.8 6.9Q29.4 6.6 28.8 6.6Q28.3 6.6 27.9 6.8Q27.6 7.1 27.5 7.5H26.2Q26.3 6.6 27.1 6Q27.8 5.5 28.9 5.5Q30 5.5 30.7 6.1Q31.4 6.7 31.4 7.7V12.2H30.2V11H29.9L30.2 10.8Q30.2 11.5 29.6 11.9Q29.1 12.4 28.1 12.4ZM28.5 11.4Q29.2 11.4 29.7 11Q30.1 10.7 30.1 10.1V9.2H28.3Q27.8 9.2 27.5 9.5Q27.2 9.8 27.2 10.3Q27.2 10.8 27.6 11.1Q27.9 11.4 28.5 11.4ZM37.9 12.2Q37 12.2 36.5 11.7Q36 11.3 36 10.4V6.8H34.2V5.6H36V3.8H37.3V5.6H39.9V6.8H37.3V10.4Q37.3 11.1 38 11.1H39.8V12.2ZM45.6 12.4Q44.8 12.4 44.2 12Q43.6 11.7 43.3 11.1Q42.9 10.6 42.9 9.8V8.1Q42.9 7.3 43.3 6.7Q43.6 6.2 44.2 5.8Q44.8 5.5 45.6 5.5Q46.4 5.5 47 5.8Q47.6 6.2 47.9 6.7Q48.3 7.3 48.3 8.1V9.3H44.2V9.8Q44.2 10.5 44.6 10.9Q44.9 11.3 45.6 11.3Q46.2 11.3 46.5 11.1Q46.9 10.9 47 10.5H48.2Q48.1 11.4 47.4 11.9Q46.7 12.4 45.6 12.4ZM47 8.5V8.1Q47 7.3 46.7 6.9Q46.3 6.6 45.6 6.6Q44.9 6.6 44.5 7Q44.2 7.3 44.2 8.1V8.4L47.1 8.4ZM53.5 12.4Q52.5 12.4 51.9 11.7Q51.3 11 51.3 9.9V8Q51.3 6.9 51.9 6.2Q52.5 5.5 53.5 5.5Q54.3 5.5 54.8 6Q55.3 6.4 55.3 7.2L55 6.9H55.3L55.3 5.4V3.5H56.6V12.2H55.3V11H55L55.3 10.7Q55.3 11.5 54.8 11.9Q54.3 12.4 53.5 12.4ZM54 11.2Q54.6 11.2 54.9 10.9Q55.3 10.5 55.3 9.8V8.1Q55.3 7.4 54.9 7Q54.6 6.6 54 6.6Q53.3 6.6 53 7Q52.6 7.4 52.6 8.1V9.8Q52.6 10.5 53 10.9Q53.3 11.2 54 11.2ZM68.2 12.2V11L70.9 8.2Q71.6 7.5 71.9 7Q72.1 6.5 72.1 5.9Q72.1 5.3 71.8 4.9Q71.4 4.5 70.8 4.5Q70.1 4.5 69.7 4.9Q69.3 5.3 69.3 6H68Q68 5.2 68.4 4.6Q68.7 4 69.3 3.7Q70 3.4 70.8 3.4Q71.6 3.4 72.2 3.7Q72.8 4 73.1 4.5Q73.4 5.1 73.4 5.9Q73.4 6.7 73 7.4Q72.6 8.2 71.7 9.1L69.7 11.1H73.6V12.2ZM77.6 12.2 80.8 4.7H77.7V6H76.4V3.5H82.1V4.7L79 12.2ZM96 12.4Q95.2 12.4 94.5 12.1Q93.9 11.8 93.5 11.2Q93.2 10.7 93.2 9.9H94.5Q94.5 10.5 94.9 10.9Q95.3 11.2 96 11.2Q96.7 11.2 97.1 10.9Q97.5 10.5 97.5 9.9Q97.5 9.5 97.3 9.1Q97 8.7 96.5 8.6L95.4 8.3Q94.4 8 93.9 7.3Q93.4 6.7 93.4 5.7Q93.4 5 93.7 4.5Q94 4 94.6 3.7Q95.2 3.4 96 3.4Q97.3 3.4 98 4Q98.7 4.6 98.7 5.7H97.4Q97.4 5.2 97.1 4.8Q96.7 4.5 96 4.5Q95.4 4.5 95 4.8Q94.7 5.1 94.7 5.7Q94.7 6.2 94.9 6.5Q95.2 6.9 95.7 7L96.8 7.4Q97.8 7.6 98.3 8.3Q98.8 9 98.8 9.9Q98.8 10.6 98.5 11.2Q98.1 11.7 97.5 12.1Q96.9 12.4 96 12.4ZM104.4 12.4Q103.6 12.4 103 12Q102.4 11.7 102.1 11.1Q101.7 10.6 101.7 9.8V8.1Q101.7 7.3 102.1 6.7Q102.4 6.2 103 5.8Q103.6 5.5 104.4 5.5Q105.2 5.5 105.8 5.8Q106.4 6.2 106.7 6.7Q107.1 7.3 107.1 8.1V9.3H103V9.8Q103 10.5 103.4 10.9Q103.7 11.3 104.4 11.3Q105 11.3 105.3 11.1Q105.7 10.9 105.8 10.5H107Q106.9 11.4 106.2 11.9Q105.5 12.4 104.4 12.4ZM105.8 8.5V8.1Q105.8 7.3 105.5 6.9Q105.1 6.6 104.4 6.6Q103.7 6.6 103.3 7Q103 7.3 103 8.1V8.4L105.9 8.4ZM110.2 14.4V5.6H111.5V6.9H111.8L111.5 7.2Q111.5 6.4 112 6Q112.5 5.5 113.3 5.5Q114.3 5.5 114.9 6.2Q115.5 6.9 115.5 8V9.9Q115.5 10.6 115.2 11.2Q114.9 11.7 114.4 12.1Q114 12.4 113.3 12.4Q112.5 12.4 112 11.9Q111.5 11.5 111.5 10.7L111.8 11H111.5L111.5 12.5V14.4ZM112.8 11.2Q113.5 11.2 113.8 10.9Q114.2 10.5 114.2 9.8V8.1Q114.2 7.4 113.8 7Q113.5 6.6 112.8 6.6Q112.2 6.6 111.9 7Q111.5 7.4 111.5 8.1V9.8Q111.5 10.5 111.9 10.9Q112.2 11.2 112.8 11.2ZM127 12.2V11L129.7 8.2Q130.4 7.5 130.7 7Q130.9 6.5 130.9 5.9Q130.9 5.3 130.6 4.9Q130.2 4.5 129.6 4.5Q128.9 4.5 128.5 4.9Q128.1 5.3 128.1 6H126.8Q126.8 5.2 127.2 4.6Q127.5 4 128.1 3.7Q128.8 3.4 129.6 3.4Q130.4 3.4 131 3.7Q131.6 4 131.9 4.5Q132.2 5.1 132.2 5.9Q132.2 6.7 131.8 7.4Q131.4 8.2 130.5 9.1L128.5 11.1H132.4V12.2ZM138 12.4Q137.2 12.4 136.6 12Q136 11.7 135.6 11.1Q135.3 10.5 135.3 9.8V6Q135.3 5.2 135.6 4.6Q136 4 136.6 3.7Q137.2 3.4 138 3.4Q138.8 3.4 139.4 3.7Q140 4 140.4 4.6Q140.7 5.2 140.7 6V9.8Q140.7 10.5 140.4 11.1Q140 11.7 139.4 12Q138.8 12.4 138 12.4ZM138 11.2Q138.7 11.2 139.1 10.8Q139.5 10.4 139.5 9.8V6Q139.5 5.3 139.1 4.9Q138.7 4.5 138 4.5Q137.3 4.5 136.9 4.9Q136.5 5.3 136.5 6V9.8Q136.5 10.4 136.9 10.8Q137.3 11.2 138 11.2ZM138 8.6Q137.7 8.6 137.5 8.4Q137.2 8.2 137.2 7.8Q137.2 7.5 137.5 7.3Q137.7 7.1 138 7.1Q138.3 7.1 138.5 7.3Q138.8 7.5 138.8 7.8Q138.8 8.2 138.5 8.4Q138.3 8.6 138 8.6ZM143.8 12.2V11L146.5 8.2Q147.2 7.5 147.5 7Q147.7 6.5 147.7 5.9Q147.7 5.3 147.4 4.9Q147 4.5 146.4 4.5Q145.7 4.5 145.3 4.9Q144.9 5.3 144.9 6H143.6Q143.6 5.2 144 4.6Q144.3 4 144.9 3.7Q145.6 3.4 146.4 3.4Q147.2 3.4 147.8 3.7Q148.4 4 148.7 4.5Q149 5.1 149 5.9Q149 6.7 148.6 7.4Q148.2 8.2 147.3 9.1L145.3 11.1H149.2V12.2ZM154.8 12.4Q153.9 12.4 153.3 12Q152.7 11.6 152.3 11Q151.9 10.3 151.9 9.5Q151.9 8.8 152.1 8.2Q152.3 7.5 152.7 6.9L154.8 3.5H156.3L153.7 7.5L153.8 7.6Q154 7.2 154.4 7Q154.8 6.8 155.3 6.8Q156 6.8 156.6 7.2Q157.1 7.5 157.4 8.1Q157.7 8.7 157.7 9.5Q157.7 10.4 157.3 11Q156.9 11.7 156.3 12Q155.7 12.4 154.8 12.4ZM154.8 11.2Q155.5 11.2 155.9 10.8Q156.4 10.3 156.4 9.5Q156.4 8.8 155.9 8.3Q155.5 7.8 154.8 7.8Q154.1 7.8 153.7 8.3Q153.2 8.8 153.2 9.5Q153.2 10.3 153.7 10.8Q154.1 11.2 154.8 11.2Z" fill="#3b302e"/></svg>